<?xml version="1.0" encoding="UTF-8" standalone="no"?><svg xmlns="http://www.w3.org/2000/svg" xmlns:xlink="http://www.w3.org/1999/xlink" contentStyleType="text/css" height="665px" preserveAspectRatio="none" style="width:5124px;height:665px;background:#FFFFFF;" version="1.1" viewBox="0 0 5124 665" width="5124px" zoomAndPan="magnify"><defs/><g><!--MD5=[d8c8cfd5ca149094f5b67f9f607a5ec7]
class Token--><g id="elem_Token"><rect codeLine="2" fill="#F1F1F1" height="118.4375" id="Token" rx="2.5" ry="2.5" style="stroke:#181818;stroke-width:0.5;" width="251" x="2551.5" y="33.5"/><ellipse cx="2652.25" cy="49.5" fill="#A9DCDF" rx="11" ry="11" style="stroke:#181818;stroke-width:1.0;"/><path d="M2654.4375,51.2656 L2650.2969,51.2656 L2649.875,52.2969 L2650.2969,52.2969 Q2650.9063,52.2969 2651.1719,52.5313 Q2651.4375,52.7656 2651.4375,53.1563 Q2651.4375,53.5313 2651.1719,53.7656 Q2650.9063,54 2650.2969,54 L2648,54 Q2647.3906,54 2647.1406,53.7656 Q2646.875,53.5313 2646.875,53.1406 Q2646.875,52.7656 2647.1563,52.5313 Q2647.4219,52.2813 2648.0469,52.2969 L2650.7188,45.6406 L2649.6094,45.6406 Q2649,45.6406 2648.7344,45.4063 Q2648.4688,45.1719 2648.4688,44.7813 Q2648.4688,44.4063 2648.7344,44.1719 Q2649,43.9375 2649.6094,43.9375 L2653.2813,43.9375 L2656.6719,52.2969 Q2657.2656,52.2969 2657.4531,52.4375 Q2657.8438,52.7031 2657.8438,53.1563 Q2657.8438,53.5313 2657.5781,53.7656 Q2657.3281,54 2656.7188,54 L2654.4219,54 Q2653.8125,54 2653.5469,53.7656 Q2653.2813,53.5313 2653.2813,53.1406 Q2653.2813,52.7656 2653.5469,52.5313 Q2653.8125,52.2969 2654.4219,52.2969 L2654.8438,52.2969 L2654.4375,51.2656 Z M2653.7188,49.5625 L2652.3594,46.1875 L2650.9844,49.5625 L2653.7188,49.5625 Z " fill="#000000"/><text fill="#000000" font-family="sans-serif" font-size="14" font-style="italic" lengthAdjust="spacing" textLength="41" x="2672.75" y="55.2285">Token</text><line style="stroke:#181818;stroke-width:0.5;" x1="2552.5" x2="2801.5" y1="65.5" y2="65.5"/><rect fill="none" height="6" style="stroke:#C82930;stroke-width:1.0;" width="6" x="2559.5" y="76.8047"/><text fill="#000000" font-family="sans-serif" font-size="14" lengthAdjust="spacing" textLength="147" x="2571.5" y="84.0332">position: TokenPosition</text><line style="stroke:#181818;stroke-width:0.5;" x1="2552.5" x2="2801.5" y1="91.1094" y2="91.1094"/><ellipse cx="2562.5" cy="105.4141" fill="#84BE84" rx="3" ry="3" style="stroke:#038048;stroke-width:1.0;"/><text fill="#000000" font-family="sans-serif" font-size="14" lengthAdjust="spacing" textLength="222" x="2571.5" y="109.6426">accept(visitor: ITokenVisitor&amp;): void</text><ellipse cx="2562.5" cy="123.0234" fill="#84BE84" rx="3" ry="3" style="stroke:#038048;stroke-width:1.0;"/><text fill="#000000" font-family="sans-serif" font-size="14" lengthAdjust="spacing" textLength="225" x="2571.5" y="127.252">getPosition(): const TokenPosition&amp;</text><polygon fill="#FFFF44" points="2562.5,135.6328,2566.5,139.6328,2562.5,143.6328,2558.5,139.6328" style="stroke:#B38D22;stroke-width:1.0;"/><text fill="#000000" font-family="sans-serif" font-size="14" lengthAdjust="spacing" textLength="197" x="2571.5" y="144.8613">Token(position: TokenPosition)</text></g><!--MD5=[453ba42626dd77d5c6522910c65b581c]
class ConstantToken--><g id="elem_ConstantToken"><rect codeLine="10" fill="#F1F1F1" height="48" id="ConstantToken" rx="2.5" ry="2.5" style="stroke:#181818;stroke-width:0.5;" width="130" x="1709" y="335"/><ellipse cx="1724" cy="351" fill="#A9DCDF" rx="11" ry="11" style="stroke:#181818;stroke-width:1.0;"/><path d="M1726.1875,352.7656 L1722.0469,352.7656 L1721.625,353.7969 L1722.0469,353.7969 Q1722.6563,353.7969 1722.9219,354.0313 Q1723.1875,354.2656 1723.1875,354.6563 Q1723.1875,355.0313 1722.9219,355.2656 Q1722.6563,355.5 1722.0469,355.5 L1719.75,355.5 Q1719.1406,355.5 1718.8906,355.2656 Q1718.625,355.0313 1718.625,354.6406 Q1718.625,354.2656 1718.9063,354.0313 Q1719.1719,353.7813 1719.7969,353.7969 L1722.4688,347.1406 L1721.3594,347.1406 Q1720.75,347.1406 1720.4844,346.9063 Q1720.2188,346.6719 1720.2188,346.2813 Q1720.2188,345.9063 1720.4844,345.6719 Q1720.75,345.4375 1721.3594,345.4375 L1725.0313,345.4375 L1728.4219,353.7969 Q1729.0156,353.7969 1729.2031,353.9375 Q1729.5938,354.2031 1729.5938,354.6563 Q1729.5938,355.0313 1729.3281,355.2656 Q1729.0781,355.5 1728.4688,355.5 L1726.1719,355.5 Q1725.5625,355.5 1725.2969,355.2656 Q1725.0313,355.0313 1725.0313,354.6406 Q1725.0313,354.2656 1725.2969,354.0313 Q1725.5625,353.7969 1726.1719,353.7969 L1726.5938,353.7969 L1726.1875,352.7656 Z M1725.4688,351.0625 L1724.1094,347.6875 L1722.7344,351.0625 L1725.4688,351.0625 Z " fill="#000000"/><text fill="#000000" font-family="sans-serif" font-size="14" font-style="italic" lengthAdjust="spacing" textLength="98" x="1738" y="356.7285">ConstantToken</text><line style="stroke:#181818;stroke-width:0.5;" x1="1710" x2="1838" y1="367" y2="367"/><line style="stroke:#181818;stroke-width:0.5;" x1="1710" x2="1838" y1="375" y2="375"/></g><!--MD5=[bc6d2bba73fb0066762ec2c19c3af06d]
class CharacterConstantToken--><g id="elem_CharacterConstantToken"><rect codeLine="13" fill="#F1F1F1" height="118.4375" id="CharacterConstantToken" rx="2.5" ry="2.5" style="stroke:#181818;stroke-width:0.5;" width="428" x="1332" y="540"/><ellipse cx="1461.75" cy="556" fill="#ADD1B2" rx="11" ry="11" style="stroke:#181818;stroke-width:1.0;"/><path d="M1464.5156,551.875 Q1464.6719,551.6563 1464.8594,551.5469 Q1465.0469,551.4375 1465.2656,551.4375 Q1465.6406,551.4375 1465.875,551.7031 Q1466.1094,551.9531 1466.1094,552.5625 L1466.1094,554.0156 Q1466.1094,554.625 1465.875,554.8906 Q1465.6406,555.1563 1465.2656,555.1563 Q1464.9219,555.1563 1464.7188,554.9531 Q1464.5156,554.7656 1464.4063,554.25 Q1464.3594,553.8906 1464.1719,553.7031 Q1463.8438,553.3281 1463.2344,553.1094 Q1462.625,552.8906 1462,552.8906 Q1461.2344,552.8906 1460.5938,553.2188 Q1459.9688,553.5469 1459.4688,554.2969 Q1458.9844,555.0469 1458.9844,556.0781 L1458.9844,557.1719 Q1458.9844,558.4063 1459.875,559.2344 Q1460.7656,560.0469 1462.3594,560.0469 Q1463.2969,560.0469 1463.9531,559.7969 Q1464.3438,559.6406 1464.7656,559.2031 Q1465.0313,558.9375 1465.1719,558.8594 Q1465.3281,558.7813 1465.5313,558.7813 Q1465.8594,558.7813 1466.1094,559.0469 Q1466.375,559.2969 1466.375,559.6406 Q1466.375,559.9844 1466.0313,560.3906 Q1465.5313,560.9688 1464.7344,561.2969 Q1463.6563,561.75 1462.3594,561.75 Q1460.8438,561.75 1459.6406,561.125 Q1458.6563,560.625 1457.9688,559.5625 Q1457.2813,558.4844 1457.2813,557.2031 L1457.2813,556.0469 Q1457.2813,554.7188 1457.8906,553.5781 Q1458.5156,552.4219 1459.6094,551.8125 Q1460.7031,551.1875 1461.9375,551.1875 Q1462.6719,551.1875 1463.3125,551.3594 Q1463.9688,551.5156 1464.5156,551.875 Z " fill="#000000"/><text fill="#000000" font-family="sans-serif" font-size="14" lengthAdjust="spacing" textLength="160" x="1482.25" y="561.7285">CharacterConstantToken</text><line style="stroke:#181818;stroke-width:0.5;" x1="1333" x2="1759" y1="572" y2="572"/><rect fill="none" height="6" style="stroke:#C82930;stroke-width:1.0;" width="6" x="1340" y="583.3047"/><text fill="#000000" font-family="sans-serif" font-size="14" lengthAdjust="spacing" textLength="77" x="1352" y="590.5332">value: string</text><line style="stroke:#181818;stroke-width:0.5;" x1="1333" x2="1759" y1="597.6094" y2="597.6094"/><ellipse cx="1343" cy="611.9141" fill="#84BE84" rx="3" ry="3" style="stroke:#038048;stroke-width:1.0;"/><text fill="#000000" font-family="sans-serif" font-size="14" lengthAdjust="spacing" textLength="402" x="1352" y="616.1426">CharacterConstantToken(position: TokenPosition, value: string)</text><ellipse cx="1343" cy="629.5234" fill="#84BE84" rx="3" ry="3" style="stroke:#038048;stroke-width:1.0;"/><text fill="#000000" font-family="sans-serif" font-size="14" lengthAdjust="spacing" textLength="222" x="1352" y="633.752">accept(visitor: ITokenVisitor&amp;): void</text><ellipse cx="1343" cy="647.1328" fill="#84BE84" rx="3" ry="3" style="stroke:#038048;stroke-width:1.0;"/><text fill="#000000" font-family="sans-serif" font-size="14" lengthAdjust="spacing" textLength="156" x="1352" y="651.3613">getValue(): const string&amp;</text></g><!--MD5=[fe5a26de2bf7a1b853cf382e1553faf2]
class DecimalConstantToken--><g id="elem_DecimalConstantToken"><rect codeLine="21" fill="#F1F1F1" height="118.4375" id="DecimalConstantToken" rx="2.5" ry="2.5" style="stroke:#181818;stroke-width:0.5;" width="415" x="1795.5" y="540"/><ellipse cx="1925.25" cy="556" fill="#ADD1B2" rx="11" ry="11" style="stroke:#181818;stroke-width:1.0;"/><path d="M1928.0156,551.875 Q1928.1719,551.6563 1928.3594,551.5469 Q1928.5469,551.4375 1928.7656,551.4375 Q1929.1406,551.4375 1929.375,551.7031 Q1929.6094,551.9531 1929.6094,552.5625 L1929.6094,554.0156 Q1929.6094,554.625 1929.375,554.8906 Q1929.1406,555.1563 1928.7656,555.1563 Q1928.4219,555.1563 1928.2188,554.9531 Q1928.0156,554.7656 1927.9063,554.25 Q1927.8594,553.8906 1927.6719,553.7031 Q1927.3438,553.3281 1926.7344,553.1094 Q1926.125,552.8906 1925.5,552.8906 Q1924.7344,552.8906 1924.0938,553.2188 Q1923.4688,553.5469 1922.9688,554.2969 Q1922.4844,555.0469 1922.4844,556.0781 L1922.4844,557.1719 Q1922.4844,558.4063 1923.375,559.2344 Q1924.2656,560.0469 1925.8594,560.0469 Q1926.7969,560.0469 1927.4531,559.7969 Q1927.8438,559.6406 1928.2656,559.2031 Q1928.5313,558.9375 1928.6719,558.8594 Q1928.8281,558.7813 1929.0313,558.7813 Q1929.3594,558.7813 1929.6094,559.0469 Q1929.875,559.2969 1929.875,559.6406 Q1929.875,559.9844 1929.5313,560.3906 Q1929.0313,560.9688 1928.2344,561.2969 Q1927.1563,561.75 1925.8594,561.75 Q1924.3438,561.75 1923.1406,561.125 Q1922.1563,560.625 1921.4688,559.5625 Q1920.7813,558.4844 1920.7813,557.2031 L1920.7813,556.0469 Q1920.7813,554.7188 1921.3906,553.5781 Q1922.0156,552.4219 1923.1094,551.8125 Q1924.2031,551.1875 1925.4375,551.1875 Q1926.1719,551.1875 1926.8125,551.3594 Q1927.4688,551.5156 1928.0156,551.875 Z " fill="#000000"/><text fill="#000000" font-family="sans-serif" font-size="14" lengthAdjust="spacing" textLength="147" x="1945.75" y="561.7285">DecimalConstantToken</text><line style="stroke:#181818;stroke-width:0.5;" x1="1796.5" x2="2209.5" y1="572" y2="572"/><rect fill="none" height="6" style="stroke:#C82930;stroke-width:1.0;" width="6" x="1803.5" y="583.3047"/><text fill="#000000" font-family="sans-serif" font-size="14" lengthAdjust="spacing" textLength="77" x="1815.5" y="590.5332">value: string</text><line style="stroke:#181818;stroke-width:0.5;" x1="1796.5" x2="2209.5" y1="597.6094" y2="597.6094"/><ellipse cx="1806.5" cy="611.9141" fill="#84BE84" rx="3" ry="3" style="stroke:#038048;stroke-width:1.0;"/><text fill="#000000" font-family="sans-serif" font-size="14" lengthAdjust="spacing" textLength="389" x="1815.5" y="616.1426">DecimalConstantToken(position: TokenPosition, value: string)</text><ellipse cx="1806.5" cy="629.5234" fill="#84BE84" rx="3" ry="3" style="stroke:#038048;stroke-width:1.0;"/><text fill="#000000" font-family="sans-serif" font-size="14" lengthAdjust="spacing" textLength="222" x="1815.5" y="633.752">accept(visitor: ITokenVisitor&amp;): void</text><ellipse cx="1806.5" cy="647.1328" fill="#84BE84" rx="3" ry="3" style="stroke:#038048;stroke-width:1.0;"/><text fill="#000000" font-family="sans-serif" font-size="14" lengthAdjust="spacing" textLength="156" x="1815.5" y="651.3613">getValue(): const string&amp;</text></g><!--MD5=[9dcbd95457c62af833a1459e2798db1f]
class ErrorToken--><g id="elem_ErrorToken"><rect codeLine="29" fill="#F1F1F1" height="118.4375" id="ErrorToken" rx="2.5" ry="2.5" style="stroke:#181818;stroke-width:0.5;" width="363" x="1874.5" y="300"/><ellipse cx="2015.75" cy="316" fill="#ADD1B2" rx="11" ry="11" style="stroke:#181818;stroke-width:1.0;"/><path d="M2018.5156,311.875 Q2018.6719,311.6563 2018.8594,311.5469 Q2019.0469,311.4375 2019.2656,311.4375 Q2019.6406,311.4375 2019.875,311.7031 Q2020.1094,311.9531 2020.1094,312.5625 L2020.1094,314.0156 Q2020.1094,314.625 2019.875,314.8906 Q2019.6406,315.1563 2019.2656,315.1563 Q2018.9219,315.1563 2018.7188,314.9531 Q2018.5156,314.7656 2018.4063,314.25 Q2018.3594,313.8906 2018.1719,313.7031 Q2017.8438,313.3281 2017.2344,313.1094 Q2016.625,312.8906 2016,312.8906 Q2015.2344,312.8906 2014.5938,313.2188 Q2013.9688,313.5469 2013.4688,314.2969 Q2012.9844,315.0469 2012.9844,316.0781 L2012.9844,317.1719 Q2012.9844,318.4063 2013.875,319.2344 Q2014.7656,320.0469 2016.3594,320.0469 Q2017.2969,320.0469 2017.9531,319.7969 Q2018.3438,319.6406 2018.7656,319.2031 Q2019.0313,318.9375 2019.1719,318.8594 Q2019.3281,318.7813 2019.5313,318.7813 Q2019.8594,318.7813 2020.1094,319.0469 Q2020.375,319.2969 2020.375,319.6406 Q2020.375,319.9844 2020.0313,320.3906 Q2019.5313,320.9688 2018.7344,321.2969 Q2017.6563,321.75 2016.3594,321.75 Q2014.8438,321.75 2013.6406,321.125 Q2012.6563,320.625 2011.9688,319.5625 Q2011.2813,318.4844 2011.2813,317.2031 L2011.2813,316.0469 Q2011.2813,314.7188 2011.8906,313.5781 Q2012.5156,312.4219 2013.6094,311.8125 Q2014.7031,311.1875 2015.9375,311.1875 Q2016.6719,311.1875 2017.3125,311.3594 Q2017.9688,311.5156 2018.5156,311.875 Z " fill="#000000"/><text fill="#000000" font-family="sans-serif" font-size="14" lengthAdjust="spacing" textLength="72" x="2036.25" y="321.7285">ErrorToken</text><line style="stroke:#181818;stroke-width:0.5;" x1="1875.5" x2="2236.5" y1="332" y2="332"/><rect fill="none" height="6" style="stroke:#C82930;stroke-width:1.0;" width="6" x="1882.5" y="343.3047"/><text fill="#000000" font-family="sans-serif" font-size="14" lengthAdjust="spacing" textLength="100" x="1894.5" y="350.5332">message: string</text><line style="stroke:#181818;stroke-width:0.5;" x1="1875.5" x2="2236.5" y1="357.6094" y2="357.6094"/><ellipse cx="1885.5" cy="371.9141" fill="#84BE84" rx="3" ry="3" style="stroke:#038048;stroke-width:1.0;"/><text fill="#000000" font-family="sans-serif" font-size="14" lengthAdjust="spacing" textLength="337" x="1894.5" y="376.1426">ErrorToken(position: TokenPosition, message: string)</text><ellipse cx="1885.5" cy="389.5234" fill="#84BE84" rx="3" ry="3" style="stroke:#038048;stroke-width:1.0;"/><text fill="#000000" font-family="sans-serif" font-size="14" lengthAdjust="spacing" textLength="222" x="1894.5" y="393.752">accept(visitor: ITokenVisitor&amp;): void</text><ellipse cx="1885.5" cy="407.1328" fill="#84BE84" rx="3" ry="3" style="stroke:#038048;stroke-width:1.0;"/><text fill="#000000" font-family="sans-serif" font-size="14" lengthAdjust="spacing" textLength="177" x="1894.5" y="411.3613">getMessage(): const string&amp;</text></g><!--MD5=[d7504a3dc4ae366aac4067ae47d41135]
class IdentifierToken--><g id="elem_IdentifierToken"><rect codeLine="37" fill="#F1F1F1" height="118.4375" id="IdentifierToken" rx="2.5" ry="2.5" style="stroke:#181818;stroke-width:0.5;" width="382" x="2273" y="300"/><ellipse cx="2412.75" cy="316" fill="#ADD1B2" rx="11" ry="11" style="stroke:#181818;stroke-width:1.0;"/><path d="M2415.5156,311.875 Q2415.6719,311.6563 2415.8594,311.5469 Q2416.0469,311.4375 2416.2656,311.4375 Q2416.6406,311.4375 2416.875,311.7031 Q2417.1094,311.9531 2417.1094,312.5625 L2417.1094,314.0156 Q2417.1094,314.625 2416.875,314.8906 Q2416.6406,315.1563 2416.2656,315.1563 Q2415.9219,315.1563 2415.7188,314.9531 Q2415.5156,314.7656 2415.4063,314.25 Q2415.3594,313.8906 2415.1719,313.7031 Q2414.8438,313.3281 2414.2344,313.1094 Q2413.625,312.8906 2413,312.8906 Q2412.2344,312.8906 2411.5938,313.2188 Q2410.9688,313.5469 2410.4688,314.2969 Q2409.9844,315.0469 2409.9844,316.0781 L2409.9844,317.1719 Q2409.9844,318.4063 2410.875,319.2344 Q2411.7656,320.0469 2413.3594,320.0469 Q2414.2969,320.0469 2414.9531,319.7969 Q2415.3438,319.6406 2415.7656,319.2031 Q2416.0313,318.9375 2416.1719,318.8594 Q2416.3281,318.7813 2416.5313,318.7813 Q2416.8594,318.7813 2417.1094,319.0469 Q2417.375,319.2969 2417.375,319.6406 Q2417.375,319.9844 2417.0313,320.3906 Q2416.5313,320.9688 2415.7344,321.2969 Q2414.6563,321.75 2413.3594,321.75 Q2411.8438,321.75 2410.6406,321.125 Q2409.6563,320.625 2408.9688,319.5625 Q2408.2813,318.4844 2408.2813,317.2031 L2408.2813,316.0469 Q2408.2813,314.7188 2408.8906,313.5781 Q2409.5156,312.4219 2410.6094,311.8125 Q2411.7031,311.1875 2412.9375,311.1875 Q2413.6719,311.1875 2414.3125,311.3594 Q2414.9688,311.5156 2415.5156,311.875 Z " fill="#000000"/><text fill="#000000" font-family="sans-serif" font-size="14" lengthAdjust="spacing" textLength="94" x="2433.25" y="321.7285">IdentifierToken</text><line style="stroke:#181818;stroke-width:0.5;" x1="2274" x2="2654" y1="332" y2="332"/><rect fill="none" height="6" style="stroke:#C82930;stroke-width:1.0;" width="6" x="2281" y="343.3047"/><text fill="#000000" font-family="sans-serif" font-size="14" lengthAdjust="spacing" textLength="97" x="2293" y="350.5332">identifier: string</text><line style="stroke:#181818;stroke-width:0.5;" x1="2274" x2="2654" y1="357.6094" y2="357.6094"/><ellipse cx="2284" cy="371.9141" fill="#84BE84" rx="3" ry="3" style="stroke:#038048;stroke-width:1.0;"/><text fill="#000000" font-family="sans-serif" font-size="14" lengthAdjust="spacing" textLength="356" x="2293" y="376.1426">IdentifierToken(position: TokenPosition, identifier: string)</text><ellipse cx="2284" cy="389.5234" fill="#84BE84" rx="3" ry="3" style="stroke:#038048;stroke-width:1.0;"/><text fill="#000000" font-family="sans-serif" font-size="14" lengthAdjust="spacing" textLength="222" x="2293" y="393.752">accept(visitor: ITokenVisitor&amp;): void</text><ellipse cx="2284" cy="407.1328" fill="#84BE84" rx="3" ry="3" style="stroke:#038048;stroke-width:1.0;"/><text fill="#000000" font-family="sans-serif" font-size="14" lengthAdjust="spacing" textLength="174" x="2293" y="411.3613">getIdentifier(): const string&amp;</text></g><!--MD5=[1ac27345a8a52a4a812e38456e107300]
class Keyword--><g id="elem_Keyword"><rect codeLine="45" fill="#F1F1F1" height="48" id="Keyword" rx="2.5" ry="2.5" style="stroke:#181818;stroke-width:0.5;" width="86" x="588" y="68.5"/><ellipse cx="603" cy="84.5" fill="#EB937F" rx="11" ry="11" style="stroke:#181818;stroke-width:1.0;"/><path d="M601.8594,85.2969 L601.8594,87.7969 L606.1875,87.7969 L606.1875,86.875 Q606.1875,86.2656 606.4219,86 Q606.6719,85.7344 607.0469,85.7344 Q607.4219,85.7344 607.6563,86 Q607.8906,86.2656 607.8906,86.875 L607.8906,89.5 L599.8906,89.5 Q599.2656,89.5 599,89.2656 Q598.75,89.0313 598.75,88.6406 Q598.75,88.2656 599.0156,88.0313 Q599.2813,87.7969 599.8906,87.7969 L600.1563,87.7969 L600.1563,81.1406 L599.8906,81.1406 Q599.2656,81.1406 599,80.9063 Q598.75,80.6719 598.75,80.2813 Q598.75,79.9063 599,79.6719 Q599.2656,79.4375 599.8906,79.4375 L607.5156,79.4375 L607.5156,82.0313 Q607.5156,82.6406 607.2813,82.9063 Q607.0625,83.1563 606.6719,83.1563 Q606.2969,83.1563 606.0625,82.9063 Q605.8281,82.6406 605.8281,82.0313 L605.8281,81.1406 L601.8594,81.1406 L601.8594,83.5938 L603.3438,83.5938 Q603.3438,82.9375 603.4688,82.75 Q603.7344,82.3438 604.2031,82.3438 Q604.5781,82.3438 604.8125,82.6094 Q605.0469,82.8594 605.0469,83.4688 L605.0469,85.4375 Q605.0469,85.9844 604.9219,86.1719 Q604.6563,86.5625 604.2031,86.5625 Q603.7344,86.5625 603.4688,86.1563 Q603.3438,85.9688 603.3438,85.2969 L601.8594,85.2969 Z " fill="#000000"/><text fill="#000000" font-family="sans-serif" font-size="14" lengthAdjust="spacing" textLength="54" x="617" y="90.2285">Keyword</text><line style="stroke:#181818;stroke-width:0.5;" x1="589" x2="673" y1="100.5" y2="100.5"/><line style="stroke:#181818;stroke-width:0.5;" x1="589" x2="673" y1="108.5" y2="108.5"/></g><!--MD5=[10f3c70667c1c1f1dcf0bb72b6201204]
class KeywordToken--><g id="elem_KeywordToken"><rect codeLine="47" fill="#F1F1F1" height="118.4375" id="KeywordToken" rx="2.5" ry="2.5" style="stroke:#181818;stroke-width:0.5;" width="399" x="2690.5" y="300"/><ellipse cx="2838.75" cy="316" fill="#ADD1B2" rx="11" ry="11" style="stroke:#181818;stroke-width:1.0;"/><path d="M2841.5156,311.875 Q2841.6719,311.6563 2841.8594,311.5469 Q2842.0469,311.4375 2842.2656,311.4375 Q2842.6406,311.4375 2842.875,311.7031 Q2843.1094,311.9531 2843.1094,312.5625 L2843.1094,314.0156 Q2843.1094,314.625 2842.875,314.8906 Q2842.6406,315.1563 2842.2656,315.1563 Q2841.9219,315.1563 2841.7188,314.9531 Q2841.5156,314.7656 2841.4063,314.25 Q2841.3594,313.8906 2841.1719,313.7031 Q2840.8438,313.3281 2840.2344,313.1094 Q2839.625,312.8906 2839,312.8906 Q2838.2344,312.8906 2837.5938,313.2188 Q2836.9688,313.5469 2836.4688,314.2969 Q2835.9844,315.0469 2835.9844,316.0781 L2835.9844,317.1719 Q2835.9844,318.4063 2836.875,319.2344 Q2837.7656,320.0469 2839.3594,320.0469 Q2840.2969,320.0469 2840.9531,319.7969 Q2841.3438,319.6406 2841.7656,319.2031 Q2842.0313,318.9375 2842.1719,318.8594 Q2842.3281,318.7813 2842.5313,318.7813 Q2842.8594,318.7813 2843.1094,319.0469 Q2843.375,319.2969 2843.375,319.6406 Q2843.375,319.9844 2843.0313,320.3906 Q2842.5313,320.9688 2841.7344,321.2969 Q2840.6563,321.75 2839.3594,321.75 Q2837.8438,321.75 2836.6406,321.125 Q2835.6563,320.625 2834.9688,319.5625 Q2834.2813,318.4844 2834.2813,317.2031 L2834.2813,316.0469 Q2834.2813,314.7188 2834.8906,313.5781 Q2835.5156,312.4219 2836.6094,311.8125 Q2837.7031,311.1875 2838.9375,311.1875 Q2839.6719,311.1875 2840.3125,311.3594 Q2840.9688,311.5156 2841.5156,311.875 Z " fill="#000000"/><text fill="#000000" font-family="sans-serif" font-size="14" lengthAdjust="spacing" textLength="94" x="2859.25" y="321.7285">KeywordToken</text><line style="stroke:#181818;stroke-width:0.5;" x1="2691.5" x2="3088.5" y1="332" y2="332"/><rect fill="none" height="6" style="stroke:#C82930;stroke-width:1.0;" width="6" x="2698.5" y="343.3047"/><text fill="#000000" font-family="sans-serif" font-size="14" lengthAdjust="spacing" textLength="114" x="2710.5" y="350.5332">keyword: Keyword</text><line style="stroke:#181818;stroke-width:0.5;" x1="2691.5" x2="3088.5" y1="357.6094" y2="357.6094"/><ellipse cx="2701.5" cy="371.9141" fill="#84BE84" rx="3" ry="3" style="stroke:#038048;stroke-width:1.0;"/><text fill="#000000" font-family="sans-serif" font-size="14" lengthAdjust="spacing" textLength="373" x="2710.5" y="376.1426">KeywordToken(position: TokenPosition, keyword: Keyword)</text><ellipse cx="2701.5" cy="389.5234" fill="#84BE84" rx="3" ry="3" style="stroke:#038048;stroke-width:1.0;"/><text fill="#000000" font-family="sans-serif" font-size="14" lengthAdjust="spacing" textLength="222" x="2710.5" y="393.752">accept(visitor: ITokenVisitor&amp;): void</text><ellipse cx="2701.5" cy="407.1328" fill="#84BE84" rx="3" ry="3" style="stroke:#038048;stroke-width:1.0;"/><text fill="#000000" font-family="sans-serif" font-size="14" lengthAdjust="spacing" textLength="146" x="2710.5" y="411.3613">getKeyword(): Keyword</text></g><!--MD5=[6c57ba2df7fe2ea991176702aebb4f35]
class Punctuator--><g id="elem_Punctuator"><rect codeLine="55" fill="#F1F1F1" height="48" id="Punctuator" rx="2.5" ry="2.5" style="stroke:#181818;stroke-width:0.5;" width="101" x="709.5" y="68.5"/><ellipse cx="724.5" cy="84.5" fill="#EB937F" rx="11" ry="11" style="stroke:#181818;stroke-width:1.0;"/><path d="M723.3594,85.2969 L723.3594,87.7969 L727.6875,87.7969 L727.6875,86.875 Q727.6875,86.2656 727.9219,86 Q728.1719,85.7344 728.5469,85.7344 Q728.9219,85.7344 729.1563,86 Q729.3906,86.2656 729.3906,86.875 L729.3906,89.5 L721.3906,89.5 Q720.7656,89.5 720.5,89.2656 Q720.25,89.0313 720.25,88.6406 Q720.25,88.2656 720.5156,88.0313 Q720.7813,87.7969 721.3906,87.7969 L721.6563,87.7969 L721.6563,81.1406 L721.3906,81.1406 Q720.7656,81.1406 720.5,80.9063 Q720.25,80.6719 720.25,80.2813 Q720.25,79.9063 720.5,79.6719 Q720.7656,79.4375 721.3906,79.4375 L729.0156,79.4375 L729.0156,82.0313 Q729.0156,82.6406 728.7813,82.9063 Q728.5625,83.1563 728.1719,83.1563 Q727.7969,83.1563 727.5625,82.9063 Q727.3281,82.6406 727.3281,82.0313 L727.3281,81.1406 L723.3594,81.1406 L723.3594,83.5938 L724.8438,83.5938 Q724.8438,82.9375 724.9688,82.75 Q725.2344,82.3438 725.7031,82.3438 Q726.0781,82.3438 726.3125,82.6094 Q726.5469,82.8594 726.5469,83.4688 L726.5469,85.4375 Q726.5469,85.9844 726.4219,86.1719 Q726.1563,86.5625 725.7031,86.5625 Q725.2344,86.5625 724.9688,86.1563 Q724.8438,85.9688 724.8438,85.2969 L723.3594,85.2969 Z " fill="#000000"/><text fill="#000000" font-family="sans-serif" font-size="14" lengthAdjust="spacing" textLength="69" x="738.5" y="90.2285">Punctuator</text><line style="stroke:#181818;stroke-width:0.5;" x1="710.5" x2="809.5" y1="100.5" y2="100.5"/><line style="stroke:#181818;stroke-width:0.5;" x1="710.5" x2="809.5" y1="108.5" y2="108.5"/></g><!--MD5=[4412ea37d667bc9f3a0effa7602a5058]
class PunctuatorToken--><g id="elem_PunctuatorToken"><rect codeLine="57" fill="#F1F1F1" height="118.4375" id="PunctuatorToken" rx="2.5" ry="2.5" style="stroke:#181818;stroke-width:0.5;" width="445" x="3124.5" y="300"/><ellipse cx="3288.25" cy="316" fill="#ADD1B2" rx="11" ry="11" style="stroke:#181818;stroke-width:1.0;"/><path d="M3291.0156,311.875 Q3291.1719,311.6563 3291.3594,311.5469 Q3291.5469,311.4375 3291.7656,311.4375 Q3292.1406,311.4375 3292.375,311.7031 Q3292.6094,311.9531 3292.6094,312.5625 L3292.6094,314.0156 Q3292.6094,314.625 3292.375,314.8906 Q3292.1406,315.1563 3291.7656,315.1563 Q3291.4219,315.1563 3291.2188,314.9531 Q3291.0156,314.7656 3290.9063,314.25 Q3290.8594,313.8906 3290.6719,313.7031 Q3290.3438,313.3281 3289.7344,313.1094 Q3289.125,312.8906 3288.5,312.8906 Q3287.7344,312.8906 3287.0938,313.2188 Q3286.4688,313.5469 3285.9688,314.2969 Q3285.4844,315.0469 3285.4844,316.0781 L3285.4844,317.1719 Q3285.4844,318.4063 3286.375,319.2344 Q3287.2656,320.0469 3288.8594,320.0469 Q3289.7969,320.0469 3290.4531,319.7969 Q3290.8438,319.6406 3291.2656,319.2031 Q3291.5313,318.9375 3291.6719,318.8594 Q3291.8281,318.7813 3292.0313,318.7813 Q3292.3594,318.7813 3292.6094,319.0469 Q3292.875,319.2969 3292.875,319.6406 Q3292.875,319.9844 3292.5313,320.3906 Q3292.0313,320.9688 3291.2344,321.2969 Q3290.1563,321.75 3288.8594,321.75 Q3287.3438,321.75 3286.1406,321.125 Q3285.1563,320.625 3284.4688,319.5625 Q3283.7813,318.4844 3283.7813,317.2031 L3283.7813,316.0469 Q3283.7813,314.7188 3284.3906,313.5781 Q3285.0156,312.4219 3286.1094,311.8125 Q3287.2031,311.1875 3288.4375,311.1875 Q3289.1719,311.1875 3289.8125,311.3594 Q3290.4688,311.5156 3291.0156,311.875 Z " fill="#000000"/><text fill="#000000" font-family="sans-serif" font-size="14" lengthAdjust="spacing" textLength="109" x="3308.75" y="321.7285">PunctuatorToken</text><line style="stroke:#181818;stroke-width:0.5;" x1="3125.5" x2="3568.5" y1="332" y2="332"/><rect fill="none" height="6" style="stroke:#C82930;stroke-width:1.0;" width="6" x="3132.5" y="343.3047"/><text fill="#000000" font-family="sans-serif" font-size="14" lengthAdjust="spacing" textLength="145" x="3144.5" y="350.5332">punctuator: Punctuator</text><line style="stroke:#181818;stroke-width:0.5;" x1="3125.5" x2="3568.5" y1="357.6094" y2="357.6094"/><ellipse cx="3135.5" cy="371.9141" fill="#84BE84" rx="3" ry="3" style="stroke:#038048;stroke-width:1.0;"/><text fill="#000000" font-family="sans-serif" font-size="14" lengthAdjust="spacing" textLength="419" x="3144.5" y="376.1426">PunctuatorToken(position: TokenPosition, punctuator: Punctuator)</text><ellipse cx="3135.5" cy="389.5234" fill="#84BE84" rx="3" ry="3" style="stroke:#038048;stroke-width:1.0;"/><text fill="#000000" font-family="sans-serif" font-size="14" lengthAdjust="spacing" textLength="222" x="3144.5" y="393.752">accept(visitor: ITokenVisitor&amp;): void</text><ellipse cx="3135.5" cy="407.1328" fill="#84BE84" rx="3" ry="3" style="stroke:#038048;stroke-width:1.0;"/><text fill="#000000" font-family="sans-serif" font-size="14" lengthAdjust="spacing" textLength="176" x="3144.5" y="411.3613">getPunctuator(): Punctuator</text></g><!--MD5=[a3337f9af4e369fe8503bb4b43e2657e]
class StringLiteralToken--><g id="elem_StringLiteralToken"><rect codeLine="65" fill="#F1F1F1" height="118.4375" id="StringLiteralToken" rx="2.5" ry="2.5" style="stroke:#181818;stroke-width:0.5;" width="362" x="3605" y="300"/><ellipse cx="3723.75" cy="316" fill="#ADD1B2" rx="11" ry="11" style="stroke:#181818;stroke-width:1.0;"/><path d="M3726.5156,311.875 Q3726.6719,311.6563 3726.8594,311.5469 Q3727.0469,311.4375 3727.2656,311.4375 Q3727.6406,311.4375 3727.875,311.7031 Q3728.1094,311.9531 3728.1094,312.5625 L3728.1094,314.0156 Q3728.1094,314.625 3727.875,314.8906 Q3727.6406,315.1563 3727.2656,315.1563 Q3726.9219,315.1563 3726.7188,314.9531 Q3726.5156,314.7656 3726.4063,314.25 Q3726.3594,313.8906 3726.1719,313.7031 Q3725.8438,313.3281 3725.2344,313.1094 Q3724.625,312.8906 3724,312.8906 Q3723.2344,312.8906 3722.5938,313.2188 Q3721.9688,313.5469 3721.4688,314.2969 Q3720.9844,315.0469 3720.9844,316.0781 L3720.9844,317.1719 Q3720.9844,318.4063 3721.875,319.2344 Q3722.7656,320.0469 3724.3594,320.0469 Q3725.2969,320.0469 3725.9531,319.7969 Q3726.3438,319.6406 3726.7656,319.2031 Q3727.0313,318.9375 3727.1719,318.8594 Q3727.3281,318.7813 3727.5313,318.7813 Q3727.8594,318.7813 3728.1094,319.0469 Q3728.375,319.2969 3728.375,319.6406 Q3728.375,319.9844 3728.0313,320.3906 Q3727.5313,320.9688 3726.7344,321.2969 Q3725.6563,321.75 3724.3594,321.75 Q3722.8438,321.75 3721.6406,321.125 Q3720.6563,320.625 3719.9688,319.5625 Q3719.2813,318.4844 3719.2813,317.2031 L3719.2813,316.0469 Q3719.2813,314.7188 3719.8906,313.5781 Q3720.5156,312.4219 3721.6094,311.8125 Q3722.7031,311.1875 3723.9375,311.1875 Q3724.6719,311.1875 3725.3125,311.3594 Q3725.9688,311.5156 3726.5156,311.875 Z " fill="#000000"/><text fill="#000000" font-family="sans-serif" font-size="14" lengthAdjust="spacing" textLength="116" x="3744.25" y="321.7285">StringLiteralToken</text><line style="stroke:#181818;stroke-width:0.5;" x1="3606" x2="3966" y1="332" y2="332"/><rect fill="none" height="6" style="stroke:#C82930;stroke-width:1.0;" width="6" x="3613" y="343.3047"/><text fill="#000000" font-family="sans-serif" font-size="14" lengthAdjust="spacing" textLength="77" x="3625" y="350.5332">value: string</text><line style="stroke:#181818;stroke-width:0.5;" x1="3606" x2="3966" y1="357.6094" y2="357.6094"/><ellipse cx="3616" cy="371.9141" fill="#84BE84" rx="3" ry="3" style="stroke:#038048;stroke-width:1.0;"/><text fill="#000000" font-family="sans-serif" font-size="14" lengthAdjust="spacing" textLength="336" x="3625" y="376.1426">IdentifierToken(position: TokenPosition, value: string)</text><ellipse cx="3616" cy="389.5234" fill="#84BE84" rx="3" ry="3" style="stroke:#038048;stroke-width:1.0;"/><text fill="#000000" font-family="sans-serif" font-size="14" lengthAdjust="spacing" textLength="222" x="3625" y="393.752">accept(visitor: ITokenVisitor&amp;): void</text><ellipse cx="3616" cy="407.1328" fill="#84BE84" rx="3" ry="3" style="stroke:#038048;stroke-width:1.0;"/><text fill="#000000" font-family="sans-serif" font-size="14" lengthAdjust="spacing" textLength="156" x="3625" y="411.3613">getValue(): const string&amp;</text></g><!--MD5=[b40a01d9793888f13f86720c0e2f62cc]
class TokenPosition--><g id="elem_TokenPosition"><rect codeLine="73" fill="#F1F1F1" height="171.2656" id="TokenPosition" rx="2.5" ry="2.5" style="stroke:#181818;stroke-width:0.5;" width="388" x="846" y="7"/><ellipse cx="990.75" cy="23" fill="#ADD1B2" rx="11" ry="11" style="stroke:#181818;stroke-width:1.0;"/><path d="M993.5156,18.875 Q993.6719,18.6563 993.8594,18.5469 Q994.0469,18.4375 994.2656,18.4375 Q994.6406,18.4375 994.875,18.7031 Q995.1094,18.9531 995.1094,19.5625 L995.1094,21.0156 Q995.1094,21.625 994.875,21.8906 Q994.6406,22.1563 994.2656,22.1563 Q993.9219,22.1563 993.7188,21.9531 Q993.5156,21.7656 993.4063,21.25 Q993.3594,20.8906 993.1719,20.7031 Q992.8438,20.3281 992.2344,20.1094 Q991.625,19.8906 991,19.8906 Q990.2344,19.8906 989.5938,20.2188 Q988.9688,20.5469 988.4688,21.2969 Q987.9844,22.0469 987.9844,23.0781 L987.9844,24.1719 Q987.9844,25.4063 988.875,26.2344 Q989.7656,27.0469 991.3594,27.0469 Q992.2969,27.0469 992.9531,26.7969 Q993.3438,26.6406 993.7656,26.2031 Q994.0313,25.9375 994.1719,25.8594 Q994.3281,25.7813 994.5313,25.7813 Q994.8594,25.7813 995.1094,26.0469 Q995.375,26.2969 995.375,26.6406 Q995.375,26.9844 995.0313,27.3906 Q994.5313,27.9688 993.7344,28.2969 Q992.6563,28.75 991.3594,28.75 Q989.8438,28.75 988.6406,28.125 Q987.6563,27.625 986.9688,26.5625 Q986.2813,25.4844 986.2813,24.2031 L986.2813,23.0469 Q986.2813,21.7188 986.8906,20.5781 Q987.5156,19.4219 988.6094,18.8125 Q989.7031,18.1875 990.9375,18.1875 Q991.6719,18.1875 992.3125,18.3594 Q992.9688,18.5156 993.5156,18.875 Z " fill="#000000"/><text fill="#000000" font-family="sans-serif" font-size="14" lengthAdjust="spacing" textLength="90" x="1011.25" y="28.7285">TokenPosition</text><line style="stroke:#181818;stroke-width:0.5;" x1="847" x2="1233" y1="39" y2="39"/><rect fill="none" height="6" style="stroke:#C82930;stroke-width:1.0;" width="6" x="854" y="50.3047"/><text fill="#000000" font-family="sans-serif" font-size="14" lengthAdjust="spacing" textLength="61" x="866" y="57.5332">file: string</text><rect fill="none" height="6" style="stroke:#C82930;stroke-width:1.0;" width="6" x="854" y="67.9141"/><text fill="#000000" font-family="sans-serif" font-size="14" lengthAdjust="spacing" textLength="81" x="866" y="75.1426">line: uint32_t</text><rect fill="none" height="6" style="stroke:#C82930;stroke-width:1.0;" width="6" x="854" y="85.5234"/><text fill="#000000" font-family="sans-serif" font-size="14" lengthAdjust="spacing" textLength="104" x="866" y="92.752">column: uint32_t</text><line style="stroke:#181818;stroke-width:0.5;" x1="847" x2="1233" y1="99.8281" y2="99.8281"/><ellipse cx="857" cy="114.1328" fill="#84BE84" rx="3" ry="3" style="stroke:#038048;stroke-width:1.0;"/><text fill="#000000" font-family="sans-serif" font-size="14" lengthAdjust="spacing" textLength="362" x="866" y="118.3613">TokenPosition(file: string, line: uint32_t, column: uint32_t)</text><ellipse cx="857" cy="131.7422" fill="#84BE84" rx="3" ry="3" style="stroke:#038048;stroke-width:1.0;"/><text fill="#000000" font-family="sans-serif" font-size="14" lengthAdjust="spacing" textLength="96" x="866" y="135.9707">getFile(): string</text><ellipse cx="857" cy="149.3516" fill="#84BE84" rx="3" ry="3" style="stroke:#038048;stroke-width:1.0;"/><text fill="#000000" font-family="sans-serif" font-size="14" lengthAdjust="spacing" textLength="116" x="866" y="153.5801">getLine(): uint32_t</text><ellipse cx="857" cy="166.9609" fill="#84BE84" rx="3" ry="3" style="stroke:#038048;stroke-width:1.0;"/><text fill="#000000" font-family="sans-serif" font-size="14" lengthAdjust="spacing" textLength="137" x="866" y="171.1895">getColumn(): uint32_t</text></g><!--MD5=[416f29f05739e99af2c75503003a72b3]
class IInputStream--><g id="elem_IInputStream"><rect codeLine="84" fill="#F1F1F1" height="118.4375" id="IInputStream" rx="2.5" ry="2.5" style="stroke:#181818;stroke-width:0.5;" width="188" x="4041" y="33.5"/><ellipse cx="4064.1" cy="49.5" fill="#B4A7E5" rx="11" ry="11" style="stroke:#181818;stroke-width:1.0;"/><path d="M4065.0531,46.1406 L4065.0531,52.7969 L4066.7719,52.7969 Q4067.3813,52.7969 4067.6469,53.0313 Q4067.9125,53.2656 4067.9125,53.6563 Q4067.9125,54.0313 4067.6469,54.2656 Q4067.3813,54.5 4066.7719,54.5 L4061.6313,54.5 Q4061.0219,54.5 4060.7563,54.2656 Q4060.4906,54.0313 4060.4906,53.6406 Q4060.4906,53.2656 4060.7563,53.0313 Q4061.0219,52.7969 4061.6313,52.7969 L4063.35,52.7969 L4063.35,46.1406 L4061.6313,46.1406 Q4061.0219,46.1406 4060.7563,45.9063 Q4060.4906,45.6719 4060.4906,45.2813 Q4060.4906,44.9063 4060.7563,44.6719 Q4061.0219,44.4375 4061.6313,44.4375 L4066.7719,44.4375 Q4067.3813,44.4375 4067.6469,44.6719 Q4067.9125,44.9063 4067.9125,45.2813 Q4067.9125,45.6719 4067.6469,45.9063 Q4067.3813,46.1406 4066.7719,46.1406 L4065.0531,46.1406 Z " fill="#000000"/><text fill="#000000" font-family="sans-serif" font-size="14" font-style="italic" lengthAdjust="spacing" textLength="81" x="4079.9" y="55.2285">IInputStream</text><rect fill="#FFFFFF" height="17.0938" style="stroke:#181818;stroke-width:1.0;stroke-dasharray:2.0,2.0;" width="55" x="4177" y="30.5"/><text fill="#000000" font-family="sans-serif" font-size="12" font-style="italic" lengthAdjust="spacing" textLength="53" x="4178" y="43.957">TElement</text><line style="stroke:#181818;stroke-width:0.5;" x1="4042" x2="4228" y1="65.5" y2="65.5"/><line style="stroke:#181818;stroke-width:0.5;" x1="4042" x2="4228" y1="73.5" y2="73.5"/><ellipse cx="4052" cy="87.8047" fill="#84BE84" rx="3" ry="3" style="stroke:#038048;stroke-width:1.0;"/><text fill="#000000" font-family="sans-serif" font-size="14" lengthAdjust="spacing" textLength="99" x="4061" y="92.0332">popMark(): void</text><ellipse cx="4052" cy="105.4141" fill="#84BE84" rx="3" ry="3" style="stroke:#038048;stroke-width:1.0;"/><text fill="#000000" font-family="sans-serif" font-size="14" lengthAdjust="spacing" textLength="106" x="4061" y="109.6426">pushMark(): void</text><ellipse cx="4052" cy="123.0234" fill="#84BE84" rx="3" ry="3" style="stroke:#038048;stroke-width:1.0;"/><text fill="#000000" font-family="sans-serif" font-size="14" lengthAdjust="spacing" textLength="162" x="4061" y="127.252">read(TElement *dst): bool</text><ellipse cx="4052" cy="140.6328" fill="#84BE84" rx="3" ry="3" style="stroke:#038048;stroke-width:1.0;"/><text fill="#000000" font-family="sans-serif" font-size="14" lengthAdjust="spacing" textLength="124" x="4061" y="144.8613">resetToMark(): void</text></g><!--MD5=[62b50d021f9e8604af512da1ac34c37d]
class ISO88591InputStream--><g id="elem_ISO88591InputStream"><rect codeLine="91" fill="#F1F1F1" height="241.7031" id="ISO88591InputStream" rx="2.5" ry="2.5" style="stroke:#181818;stroke-width:0.5;" width="265" x="4002.5" y="238"/><ellipse cx="4061.25" cy="254" fill="#ADD1B2" rx="11" ry="11" style="stroke:#181818;stroke-width:1.0;"/><path d="M4064.0156,249.875 Q4064.1719,249.6563 4064.3594,249.5469 Q4064.5469,249.4375 4064.7656,249.4375 Q4065.1406,249.4375 4065.375,249.7031 Q4065.6094,249.9531 4065.6094,250.5625 L4065.6094,252.0156 Q4065.6094,252.625 4065.375,252.8906 Q4065.1406,253.1563 4064.7656,253.1563 Q4064.4219,253.1563 4064.2188,252.9531 Q4064.0156,252.7656 4063.9063,252.25 Q4063.8594,251.8906 4063.6719,251.7031 Q4063.3438,251.3281 4062.7344,251.1094 Q4062.125,250.8906 4061.5,250.8906 Q4060.7344,250.8906 4060.0938,251.2188 Q4059.4688,251.5469 4058.9688,252.2969 Q4058.4844,253.0469 4058.4844,254.0781 L4058.4844,255.1719 Q4058.4844,256.4063 4059.375,257.2344 Q4060.2656,258.0469 4061.8594,258.0469 Q4062.7969,258.0469 4063.4531,257.7969 Q4063.8438,257.6406 4064.2656,257.2031 Q4064.5313,256.9375 4064.6719,256.8594 Q4064.8281,256.7813 4065.0313,256.7813 Q4065.3594,256.7813 4065.6094,257.0469 Q4065.875,257.2969 4065.875,257.6406 Q4065.875,257.9844 4065.5313,258.3906 Q4065.0313,258.9688 4064.2344,259.2969 Q4063.1563,259.75 4061.8594,259.75 Q4060.3438,259.75 4059.1406,259.125 Q4058.1563,258.625 4057.4688,257.5625 Q4056.7813,256.4844 4056.7813,255.2031 L4056.7813,254.0469 Q4056.7813,252.7188 4057.3906,251.5781 Q4058.0156,250.4219 4059.1094,249.8125 Q4060.2031,249.1875 4061.4375,249.1875 Q4062.1719,249.1875 4062.8125,249.3594 Q4063.4688,249.5156 4064.0156,249.875 Z " fill="#000000"/><text fill="#000000" font-family="sans-serif" font-size="14" lengthAdjust="spacing" textLength="139" x="4081.75" y="259.7285">ISO88591InputStream</text><line style="stroke:#181818;stroke-width:0.5;" x1="4003.5" x2="4266.5" y1="270" y2="270"/><rect fill="none" height="6" style="stroke:#C82930;stroke-width:1.0;" width="6" x="4010.5" y="281.3047"/><text fill="#000000" font-family="sans-serif" font-size="14" lengthAdjust="spacing" textLength="101" x="4022.5" y="288.5332">stream: ifstream</text><rect fill="none" height="6" style="stroke:#C82930;stroke-width:1.0;" width="6" x="4010.5" y="298.9141"/><text fill="#000000" font-family="sans-serif" font-size="14" lengthAdjust="spacing" textLength="78" x="4022.5" y="306.1426">buffer: char*</text><rect fill="none" height="6" style="stroke:#C82930;stroke-width:1.0;" width="6" x="4010.5" y="316.5234"/><text fill="#000000" font-family="sans-serif" font-size="14" lengthAdjust="spacing" textLength="119" x="4022.5" y="323.752">bufferOffset: size_t</text><rect fill="none" height="6" style="stroke:#C82930;stroke-width:1.0;" width="6" x="4010.5" y="334.1328"/><text fill="#000000" font-family="sans-serif" font-size="14" lengthAdjust="spacing" textLength="110" x="4022.5" y="341.3613">bufferLimit: size_t</text><rect fill="none" height="6" style="stroke:#C82930;stroke-width:1.0;" width="6" x="4010.5" y="351.7422"/><text fill="#000000" font-family="sans-serif" font-size="14" lengthAdjust="spacing" textLength="136" x="4022.5" y="358.9707">bufferCapacity: size_t</text><rect fill="none" height="6" style="stroke:#C82930;stroke-width:1.0;" width="6" x="4010.5" y="369.3516"/><text fill="#000000" font-family="sans-serif" font-size="14" lengthAdjust="spacing" textLength="165" x="4022.5" y="376.5801">markStack: vector&lt;size_t&gt;</text><line style="stroke:#181818;stroke-width:0.5;" x1="4003.5" x2="4266.5" y1="383.6563" y2="383.6563"/><ellipse cx="4013.5" cy="397.9609" fill="#84BE84" rx="3" ry="3" style="stroke:#038048;stroke-width:1.0;"/><text fill="#000000" font-family="sans-serif" font-size="14" lengthAdjust="spacing" textLength="239" x="4022.5" y="402.1895">ISO88591InputStream(filePath: string)</text><ellipse cx="4013.5" cy="415.5703" fill="#84BE84" rx="3" ry="3" style="stroke:#038048;stroke-width:1.0;"/><text fill="#000000" font-family="sans-serif" font-size="14" lengthAdjust="spacing" textLength="99" x="4022.5" y="419.7988">popMark(): void</text><ellipse cx="4013.5" cy="433.1797" fill="#84BE84" rx="3" ry="3" style="stroke:#038048;stroke-width:1.0;"/><text fill="#000000" font-family="sans-serif" font-size="14" lengthAdjust="spacing" textLength="106" x="4022.5" y="437.4082">pushMark(): void</text><ellipse cx="4013.5" cy="450.7891" fill="#84BE84" rx="3" ry="3" style="stroke:#038048;stroke-width:1.0;"/><text fill="#000000" font-family="sans-serif" font-size="14" lengthAdjust="spacing" textLength="130" x="4022.5" y="455.0176">read(char *dst): bool</text><ellipse cx="4013.5" cy="468.3984" fill="#84BE84" rx="3" ry="3" style="stroke:#038048;stroke-width:1.0;"/><text fill="#000000" font-family="sans-serif" font-size="14" lengthAdjust="spacing" textLength="124" x="4022.5" y="472.627">resetToMark(): void</text></g><!--MD5=[0026934fe29dbee82ca150271e5cded8]
class ITokenVisitor--><g id="elem_ITokenVisitor"><rect codeLine="106" fill="#F1F1F1" height="171.2656" id="ITokenVisitor" rx="2.5" ry="2.5" style="stroke:#181818;stroke-width:0.5;" width="297" x="4302.5" y="7"/><ellipse cx="4404.75" cy="23" fill="#B4A7E5" rx="11" ry="11" style="stroke:#181818;stroke-width:1.0;"/><path d="M4405.7031,19.6406 L4405.7031,26.2969 L4407.4219,26.2969 Q4408.0313,26.2969 4408.2969,26.5313 Q4408.5625,26.7656 4408.5625,27.1563 Q4408.5625,27.5313 4408.2969,27.7656 Q4408.0313,28 4407.4219,28 L4402.2813,28 Q4401.6719,28 4401.4063,27.7656 Q4401.1406,27.5313 4401.1406,27.1406 Q4401.1406,26.7656 4401.4063,26.5313 Q4401.6719,26.2969 4402.2813,26.2969 L4404,26.2969 L4404,19.6406 L4402.2813,19.6406 Q4401.6719,19.6406 4401.4063,19.4063 Q4401.1406,19.1719 4401.1406,18.7813 Q4401.1406,18.4063 4401.4063,18.1719 Q4401.6719,17.9375 4402.2813,17.9375 L4407.4219,17.9375 Q4408.0313,17.9375 4408.2969,18.1719 Q4408.5625,18.4063 4408.5625,18.7813 Q4408.5625,19.1719 4408.2969,19.4063 Q4408.0313,19.6406 4407.4219,19.6406 L4405.7031,19.6406 Z " fill="#000000"/><text fill="#000000" font-family="sans-serif" font-size="14" font-style="italic" lengthAdjust="spacing" textLength="84" x="4425.25" y="28.7285">ITokenVisitor</text><line style="stroke:#181818;stroke-width:0.5;" x1="4303.5" x2="4598.5" y1="39" y2="39"/><line style="stroke:#181818;stroke-width:0.5;" x1="4303.5" x2="4598.5" y1="47" y2="47"/><ellipse cx="4313.5" cy="61.3047" fill="#84BE84" rx="3" ry="3" style="stroke:#038048;stroke-width:1.0;"/><text fill="#000000" font-family="sans-serif" font-size="14" lengthAdjust="spacing" textLength="271" x="4322.5" y="65.5332">visit(token: CharacterConstantToken): void</text><ellipse cx="4313.5" cy="78.9141" fill="#84BE84" rx="3" ry="3" style="stroke:#038048;stroke-width:1.0;"/><text fill="#000000" font-family="sans-serif" font-size="14" lengthAdjust="spacing" textLength="258" x="4322.5" y="83.1426">visit(token: DecimalConstantToken): void</text><ellipse cx="4313.5" cy="96.5234" fill="#84BE84" rx="3" ry="3" style="stroke:#038048;stroke-width:1.0;"/><text fill="#000000" font-family="sans-serif" font-size="14" lengthAdjust="spacing" textLength="183" x="4322.5" y="100.752">visit(token: ErrorToken): void</text><ellipse cx="4313.5" cy="114.1328" fill="#84BE84" rx="3" ry="3" style="stroke:#038048;stroke-width:1.0;"/><text fill="#000000" font-family="sans-serif" font-size="14" lengthAdjust="spacing" textLength="205" x="4322.5" y="118.3613">visit(token: IdentifierToken): void</text><ellipse cx="4313.5" cy="131.7422" fill="#84BE84" rx="3" ry="3" style="stroke:#038048;stroke-width:1.0;"/><text fill="#000000" font-family="sans-serif" font-size="14" lengthAdjust="spacing" textLength="205" x="4322.5" y="135.9707">visit(token: KeywordToken): void</text><ellipse cx="4313.5" cy="149.3516" fill="#84BE84" rx="3" ry="3" style="stroke:#038048;stroke-width:1.0;"/><text fill="#000000" font-family="sans-serif" font-size="14" lengthAdjust="spacing" textLength="220" x="4322.5" y="153.5801">visit(token: PunctuatorToken): void</text><ellipse cx="4313.5" cy="166.9609" fill="#84BE84" rx="3" ry="3" style="stroke:#038048;stroke-width:1.0;"/><text fill="#000000" font-family="sans-serif" font-size="14" lengthAdjust="spacing" textLength="227" x="4322.5" y="171.1895">visit(token: StringLiteralToken): void</text></g><!--MD5=[360296faaed6a1f1be6a6498410daf43]
class PrintVisitor--><g id="elem_PrintVisitor"><rect codeLine="116" fill="#F1F1F1" height="241.7031" id="PrintVisitor" rx="2.5" ry="2.5" style="stroke:#181818;stroke-width:0.5;" width="297" x="4302.5" y="238"/><ellipse cx="4412.75" cy="254" fill="#ADD1B2" rx="11" ry="11" style="stroke:#181818;stroke-width:1.0;"/><path d="M4415.5156,249.875 Q4415.6719,249.6563 4415.8594,249.5469 Q4416.0469,249.4375 4416.2656,249.4375 Q4416.6406,249.4375 4416.875,249.7031 Q4417.1094,249.9531 4417.1094,250.5625 L4417.1094,252.0156 Q4417.1094,252.625 4416.875,252.8906 Q4416.6406,253.1563 4416.2656,253.1563 Q4415.9219,253.1563 4415.7188,252.9531 Q4415.5156,252.7656 4415.4063,252.25 Q4415.3594,251.8906 4415.1719,251.7031 Q4414.8438,251.3281 4414.2344,251.1094 Q4413.625,250.8906 4413,250.8906 Q4412.2344,250.8906 4411.5938,251.2188 Q4410.9688,251.5469 4410.4688,252.2969 Q4409.9844,253.0469 4409.9844,254.0781 L4409.9844,255.1719 Q4409.9844,256.4063 4410.875,257.2344 Q4411.7656,258.0469 4413.3594,258.0469 Q4414.2969,258.0469 4414.9531,257.7969 Q4415.3438,257.6406 4415.7656,257.2031 Q4416.0313,256.9375 4416.1719,256.8594 Q4416.3281,256.7813 4416.5313,256.7813 Q4416.8594,256.7813 4417.1094,257.0469 Q4417.375,257.2969 4417.375,257.6406 Q4417.375,257.9844 4417.0313,258.3906 Q4416.5313,258.9688 4415.7344,259.2969 Q4414.6563,259.75 4413.3594,259.75 Q4411.8438,259.75 4410.6406,259.125 Q4409.6563,258.625 4408.9688,257.5625 Q4408.2813,256.4844 4408.2813,255.2031 L4408.2813,254.0469 Q4408.2813,252.7188 4408.8906,251.5781 Q4409.5156,250.4219 4410.6094,249.8125 Q4411.7031,249.1875 4412.9375,249.1875 Q4413.6719,249.1875 4414.3125,249.3594 Q4414.9688,249.5156 4415.5156,249.875 Z " fill="#000000"/><text fill="#000000" font-family="sans-serif" font-size="14" lengthAdjust="spacing" textLength="68" x="4433.25" y="259.7285">PrintVisitor</text><line style="stroke:#181818;stroke-width:0.5;" x1="4303.5" x2="4598.5" y1="270" y2="270"/><rect fill="none" height="6" style="stroke:#C82930;stroke-width:1.0;" width="6" x="4310.5" y="281.3047"/><text fill="#000000" font-family="sans-serif" font-size="14" lengthAdjust="spacing" textLength="144" x="4322.5" y="288.5332">outputStream: ostream</text><line style="stroke:#181818;stroke-width:0.5;" x1="4303.5" x2="4598.5" y1="295.6094" y2="295.6094"/><ellipse cx="4313.5" cy="309.9141" fill="#84BE84" rx="3" ry="3" style="stroke:#038048;stroke-width:1.0;"/><text fill="#000000" font-family="sans-serif" font-size="14" lengthAdjust="spacing" textLength="222" x="4322.5" y="314.1426">PrintVisitor(outputStream: ostream)</text><ellipse cx="4313.5" cy="327.5234" fill="#84BE84" rx="3" ry="3" style="stroke:#038048;stroke-width:1.0;"/><text fill="#000000" font-family="sans-serif" font-size="14" lengthAdjust="spacing" textLength="271" x="4322.5" y="331.752">visit(token: CharacterConstantToken): void</text><ellipse cx="4313.5" cy="345.1328" fill="#84BE84" rx="3" ry="3" style="stroke:#038048;stroke-width:1.0;"/><text fill="#000000" font-family="sans-serif" font-size="14" lengthAdjust="spacing" textLength="258" x="4322.5" y="349.3613">visit(token: DecimalConstantToken): void</text><ellipse cx="4313.5" cy="362.7422" fill="#84BE84" rx="3" ry="3" style="stroke:#038048;stroke-width:1.0;"/><text fill="#000000" font-family="sans-serif" font-size="14" lengthAdjust="spacing" textLength="183" x="4322.5" y="366.9707">visit(token: ErrorToken): void</text><ellipse cx="4313.5" cy="380.3516" fill="#84BE84" rx="3" ry="3" style="stroke:#038048;stroke-width:1.0;"/><text fill="#000000" font-family="sans-serif" font-size="14" lengthAdjust="spacing" textLength="205" x="4322.5" y="384.5801">visit(token: IdentifierToken): void</text><ellipse cx="4313.5" cy="397.9609" fill="#84BE84" rx="3" ry="3" style="stroke:#038048;stroke-width:1.0;"/><text fill="#000000" font-family="sans-serif" font-size="14" lengthAdjust="spacing" textLength="205" x="4322.5" y="402.1895">visit(token: KeywordToken): void</text><ellipse cx="4313.5" cy="415.5703" fill="#84BE84" rx="3" ry="3" style="stroke:#038048;stroke-width:1.0;"/><text fill="#000000" font-family="sans-serif" font-size="14" lengthAdjust="spacing" textLength="220" x="4322.5" y="419.7988">visit(token: PunctuatorToken): void</text><ellipse cx="4313.5" cy="433.1797" fill="#84BE84" rx="3" ry="3" style="stroke:#038048;stroke-width:1.0;"/><text fill="#000000" font-family="sans-serif" font-size="14" lengthAdjust="spacing" textLength="227" x="4322.5" y="437.4082">visit(token: StringLiteralToken): void</text><text fill="#000000" font-family="sans-serif" font-size="14" lengthAdjust="spacing" textLength="4" x="4322.5" y="455.0176"></text><rect fill="#F24D5C" height="6" style="stroke:#C82930;stroke-width:1.0;" width="6" x="4310.5" y="465.3984"/><text fill="#000000" font-family="sans-serif" font-size="14" lengthAdjust="spacing" textLength="180" x="4322.5" y="472.627">printPosition(token: Token&amp;)</text></g><!--MD5=[8ff175ab6a1849416c5f8a6c27b711a2]
class Lexer--><g id="elem_Lexer"><rect codeLine="131" fill="#F1F1F1" height="153.6563" id="Lexer" rx="2.5" ry="2.5" style="stroke:#181818;stroke-width:0.5;" width="1248" x="7" y="282"/><ellipse cx="609.25" cy="298" fill="#ADD1B2" rx="11" ry="11" style="stroke:#181818;stroke-width:1.0;"/><path d="M612.0156,293.875 Q612.1719,293.6563 612.3594,293.5469 Q612.5469,293.4375 612.7656,293.4375 Q613.1406,293.4375 613.375,293.7031 Q613.6094,293.9531 613.6094,294.5625 L613.6094,296.0156 Q613.6094,296.625 613.375,296.8906 Q613.1406,297.1563 612.7656,297.1563 Q612.4219,297.1563 612.2188,296.9531 Q612.0156,296.7656 611.9063,296.25 Q611.8594,295.8906 611.6719,295.7031 Q611.3438,295.3281 610.7344,295.1094 Q610.125,294.8906 609.5,294.8906 Q608.7344,294.8906 608.0938,295.2188 Q607.4688,295.5469 606.9688,296.2969 Q606.4844,297.0469 606.4844,298.0781 L606.4844,299.1719 Q606.4844,300.4063 607.375,301.2344 Q608.2656,302.0469 609.8594,302.0469 Q610.7969,302.0469 611.4531,301.7969 Q611.8438,301.6406 612.2656,301.2031 Q612.5313,300.9375 612.6719,300.8594 Q612.8281,300.7813 613.0313,300.7813 Q613.3594,300.7813 613.6094,301.0469 Q613.875,301.2969 613.875,301.6406 Q613.875,301.9844 613.5313,302.3906 Q613.0313,302.9688 612.2344,303.2969 Q611.1563,303.75 609.8594,303.75 Q608.3438,303.75 607.1406,303.125 Q606.1563,302.625 605.4688,301.5625 Q604.7813,300.4844 604.7813,299.2031 L604.7813,298.0469 Q604.7813,296.7188 605.3906,295.5781 Q606.0156,294.4219 607.1094,293.8125 Q608.2031,293.1875 609.4375,293.1875 Q610.1719,293.1875 610.8125,293.3594 Q611.4688,293.5156 612.0156,293.875 Z " fill="#000000"/><text fill="#000000" font-family="sans-serif" font-size="14" lengthAdjust="spacing" textLength="35" x="629.75" y="303.7285">Lexer</text><line style="stroke:#181818;stroke-width:0.5;" x1="8" x2="1254" y1="314" y2="314"/><rect fill="none" height="6" style="stroke:#C82930;stroke-width:1.0;" width="6" x="15" y="325.3047"/><text fill="#000000" font-family="sans-serif" font-size="14" lengthAdjust="spacing" textLength="289" x="27" y="332.5332">charStream: shared_ptr&lt;IInputStream&lt;char&gt;&gt;</text><rect fill="none" height="6" style="stroke:#C82930;stroke-width:1.0;" width="6" x="15" y="342.9141"/><text fill="#000000" font-family="sans-serif" font-size="14" lengthAdjust="spacing" textLength="300" x="27" y="350.1426">punctuatorAutomaton: shared_ptr&lt;IAutomaton&gt;</text><rect fill="none" height="6" style="stroke:#C82930;stroke-width:1.0;" width="6" x="15" y="360.5234"/><text fill="#000000" font-family="sans-serif" font-size="14" lengthAdjust="spacing" textLength="284" x="27" y="367.752">keywordAutomaton: shared_ptr&lt;IAutomaton&gt;</text><rect fill="none" height="6" style="stroke:#C82930;stroke-width:1.0;" width="6" x="15" y="378.1328"/><text fill="#000000" font-family="sans-serif" font-size="14" lengthAdjust="spacing" textLength="280" x="27" y="385.3613">digraphAutomaton: shared_ptr&lt;IAutomaton&gt;</text><line style="stroke:#181818;stroke-width:0.5;" x1="8" x2="1254" y1="392.4375" y2="392.4375"/><ellipse cx="18" cy="406.7422" fill="#84BE84" rx="3" ry="3" style="stroke:#038048;stroke-width:1.0;"/><text fill="#000000" font-family="sans-serif" font-size="14" lengthAdjust="spacing" textLength="1222" x="27" y="410.9707">Lexer(charStream: shared_ptr&lt;IInputStream&lt;char&gt;&gt;, punctuatorAutomaton: shared_ptr&lt;IAutomaton&gt;, keywordAutomaton: shared_ptr&lt;IAutomaton&gt;, digraphAutomaton: shared_ptr&lt;IAutomaton&gt;)</text><ellipse cx="18" cy="424.3516" fill="#84BE84" rx="3" ry="3" style="stroke:#038048;stroke-width:1.0;"/><text fill="#000000" font-family="sans-serif" font-size="14" lengthAdjust="spacing" textLength="209" x="27" y="428.5801">nextToken(): shared_ptr&lt;Token&gt;</text></g><!--MD5=[4a007c31da6bb3e4c53a517d2bec7013]
class IAutomaton--><g id="elem_IAutomaton"><rect codeLine="141" fill="#F1F1F1" height="65.6094" id="IAutomaton" rx="2.5" ry="2.5" style="stroke:#181818;stroke-width:0.5;" width="479" x="4634.5" y="59.5"/><ellipse cx="4784.75" cy="75.5" fill="#B4A7E5" rx="11" ry="11" style="stroke:#181818;stroke-width:1.0;"/><path d="M4785.7031,72.1406 L4785.7031,78.7969 L4787.4219,78.7969 Q4788.0313,78.7969 4788.2969,79.0313 Q4788.5625,79.2656 4788.5625,79.6563 Q4788.5625,80.0313 4788.2969,80.2656 Q4788.0313,80.5 4787.4219,80.5 L4782.2813,80.5 Q4781.6719,80.5 4781.4063,80.2656 Q4781.1406,80.0313 4781.1406,79.6406 Q4781.1406,79.2656 4781.4063,79.0313 Q4781.6719,78.7969 4782.2813,78.7969 L4784,78.7969 L4784,72.1406 L4782.2813,72.1406 Q4781.6719,72.1406 4781.4063,71.9063 Q4781.1406,71.6719 4781.1406,71.2813 Q4781.1406,70.9063 4781.4063,70.6719 Q4781.6719,70.4375 4782.2813,70.4375 L4787.4219,70.4375 Q4788.0313,70.4375 4788.2969,70.6719 Q4788.5625,70.9063 4788.5625,71.2813 Q4788.5625,71.6719 4788.2969,71.9063 Q4788.0313,72.1406 4787.4219,72.1406 L4785.7031,72.1406 Z " fill="#000000"/><text fill="#000000" font-family="sans-serif" font-size="14" font-style="italic" lengthAdjust="spacing" textLength="72" x="4805.25" y="81.2285">IAutomaton</text><rect fill="#FFFFFF" height="17.0938" style="stroke:#181818;stroke-width:1.0;stroke-dasharray:2.0,2.0;" width="96" x="5020.5" y="56.5"/><text fill="#000000" font-family="sans-serif" font-size="12" font-style="italic" lengthAdjust="spacing" textLength="94" x="5021.5" y="69.957">TEdge, TPayload</text><line style="stroke:#181818;stroke-width:0.5;" x1="4635.5" x2="5112.5" y1="91.5" y2="91.5"/><line style="stroke:#181818;stroke-width:0.5;" x1="4635.5" x2="5112.5" y1="99.5" y2="99.5"/><ellipse cx="4645.5" cy="113.8047" fill="#84BE84" rx="3" ry="3" style="stroke:#038048;stroke-width:1.0;"/><text fill="#000000" font-family="sans-serif" font-size="14" lengthAdjust="spacing" textLength="453" x="4654.5" y="118.0332">walk(src: IInputStream&lt;TEdge&gt;): shared_ptr&lt;Node&lt;TEdge, TPayload&gt;&gt;</text></g><!--MD5=[54c812b83313d5d87f3e1287e0931ad7]
class Automaton--><g id="elem_Automaton"><rect codeLine="145" fill="#F1F1F1" height="65.6094" id="Automaton" rx="2.5" ry="2.5" style="stroke:#181818;stroke-width:0.5;" width="167" x="4790.5" y="326"/><ellipse cx="4835.75" cy="342" fill="#ADD1B2" rx="11" ry="11" style="stroke:#181818;stroke-width:1.0;"/><path d="M4838.5156,337.875 Q4838.6719,337.6563 4838.8594,337.5469 Q4839.0469,337.4375 4839.2656,337.4375 Q4839.6406,337.4375 4839.875,337.7031 Q4840.1094,337.9531 4840.1094,338.5625 L4840.1094,340.0156 Q4840.1094,340.625 4839.875,340.8906 Q4839.6406,341.1563 4839.2656,341.1563 Q4838.9219,341.1563 4838.7188,340.9531 Q4838.5156,340.7656 4838.4063,340.25 Q4838.3594,339.8906 4838.1719,339.7031 Q4837.8438,339.3281 4837.2344,339.1094 Q4836.625,338.8906 4836,338.8906 Q4835.2344,338.8906 4834.5938,339.2188 Q4833.9688,339.5469 4833.4688,340.2969 Q4832.9844,341.0469 4832.9844,342.0781 L4832.9844,343.1719 Q4832.9844,344.4063 4833.875,345.2344 Q4834.7656,346.0469 4836.3594,346.0469 Q4837.2969,346.0469 4837.9531,345.7969 Q4838.3438,345.6406 4838.7656,345.2031 Q4839.0313,344.9375 4839.1719,344.8594 Q4839.3281,344.7813 4839.5313,344.7813 Q4839.8594,344.7813 4840.1094,345.0469 Q4840.375,345.2969 4840.375,345.6406 Q4840.375,345.9844 4840.0313,346.3906 Q4839.5313,346.9688 4838.7344,347.2969 Q4837.6563,347.75 4836.3594,347.75 Q4834.8438,347.75 4833.6406,347.125 Q4832.6563,346.625 4831.9688,345.5625 Q4831.2813,344.4844 4831.2813,343.2031 L4831.2813,342.0469 Q4831.2813,340.7188 4831.8906,339.5781 Q4832.5156,338.4219 4833.6094,337.8125 Q4834.7031,337.1875 4835.9375,337.1875 Q4836.6719,337.1875 4837.3125,337.3594 Q4837.9688,337.5156 4838.5156,337.875 Z " fill="#000000"/><text fill="#000000" font-family="sans-serif" font-size="14" lengthAdjust="spacing" textLength="68" x="4856.25" y="347.7285">Automaton</text><line style="stroke:#181818;stroke-width:0.5;" x1="4791.5" x2="4956.5" y1="358" y2="358"/><line style="stroke:#181818;stroke-width:0.5;" x1="4791.5" x2="4956.5" y1="366" y2="366"/><ellipse cx="4801.5" cy="380.3047" fill="#84BE84" rx="3" ry="3" style="stroke:#038048;stroke-width:1.0;"/><text fill="#000000" font-family="sans-serif" font-size="14" lengthAdjust="spacing" textLength="141" x="4810.5" y="384.5332">Automaton(tree: Tree)</text></g><!--MD5=[3fee75583bb7a64f68d843a3c9534ab3]
class Node--><g id="elem_Node"><rect codeLine="149" fill="#F1F1F1" height="118.4375" id="Node" rx="2.5" ry="2.5" style="stroke:#181818;stroke-width:0.5;" width="384" x="1290" y="300"/><ellipse cx="1412.25" cy="316" fill="#ADD1B2" rx="11" ry="11" style="stroke:#181818;stroke-width:1.0;"/><path d="M1415.0156,311.875 Q1415.1719,311.6563 1415.3594,311.5469 Q1415.5469,311.4375 1415.7656,311.4375 Q1416.1406,311.4375 1416.375,311.7031 Q1416.6094,311.9531 1416.6094,312.5625 L1416.6094,314.0156 Q1416.6094,314.625 1416.375,314.8906 Q1416.1406,315.1563 1415.7656,315.1563 Q1415.4219,315.1563 1415.2188,314.9531 Q1415.0156,314.7656 1414.9063,314.25 Q1414.8594,313.8906 1414.6719,313.7031 Q1414.3438,313.3281 1413.7344,313.1094 Q1413.125,312.8906 1412.5,312.8906 Q1411.7344,312.8906 1411.0938,313.2188 Q1410.4688,313.5469 1409.9688,314.2969 Q1409.4844,315.0469 1409.4844,316.0781 L1409.4844,317.1719 Q1409.4844,318.4063 1410.375,319.2344 Q1411.2656,320.0469 1412.8594,320.0469 Q1413.7969,320.0469 1414.4531,319.7969 Q1414.8438,319.6406 1415.2656,319.2031 Q1415.5313,318.9375 1415.6719,318.8594 Q1415.8281,318.7813 1416.0313,318.7813 Q1416.3594,318.7813 1416.6094,319.0469 Q1416.875,319.2969 1416.875,319.6406 Q1416.875,319.9844 1416.5313,320.3906 Q1416.0313,320.9688 1415.2344,321.2969 Q1414.1563,321.75 1412.8594,321.75 Q1411.3438,321.75 1410.1406,321.125 Q1409.1563,320.625 1408.4688,319.5625 Q1407.7813,318.4844 1407.7813,317.2031 L1407.7813,316.0469 Q1407.7813,314.7188 1408.3906,313.5781 Q1409.0156,312.4219 1410.1094,311.8125 Q1411.2031,311.1875 1412.4375,311.1875 Q1413.1719,311.1875 1413.8125,311.3594 Q1414.4688,311.5156 1415.0156,311.875 Z " fill="#000000"/><text fill="#000000" font-family="sans-serif" font-size="14" lengthAdjust="spacing" textLength="33" x="1432.75" y="321.7285">Node</text><rect fill="#FFFFFF" height="17.0938" style="stroke:#181818;stroke-width:1.0;stroke-dasharray:2.0,2.0;" width="96" x="1581" y="297"/><text fill="#000000" font-family="sans-serif" font-size="12" font-style="italic" lengthAdjust="spacing" textLength="94" x="1582" y="310.457">TEdge, TPayload</text><line style="stroke:#181818;stroke-width:0.5;" x1="1291" x2="1673" y1="332" y2="332"/><rect fill="none" height="6" style="stroke:#C82930;stroke-width:1.0;" width="6" x="1298" y="343.3047"/><text fill="#000000" font-family="sans-serif" font-size="14" lengthAdjust="spacing" textLength="358" x="1310" y="350.5332">transitions: unordered_map&lt;TEdge, shared_ptr&lt;Node&gt;&gt;</text><rect fill="none" height="6" style="stroke:#C82930;stroke-width:1.0;" width="6" x="1298" y="360.9141"/><text fill="#000000" font-family="sans-serif" font-size="14" lengthAdjust="spacing" textLength="203" x="1310" y="368.1426">payload: shared_ptr&lt;TPayload&gt;</text><line style="stroke:#181818;stroke-width:0.5;" x1="1291" x2="1673" y1="375.2188" y2="375.2188"/><ellipse cx="1301" cy="389.5234" fill="#84BE84" rx="3" ry="3" style="stroke:#038048;stroke-width:1.0;"/><text fill="#000000" font-family="sans-serif" font-size="14" lengthAdjust="spacing" textLength="43" x="1310" y="393.752">Node()</text><ellipse cx="1301" cy="407.1328" fill="#84BE84" rx="3" ry="3" style="stroke:#038048;stroke-width:1.0;"/><text fill="#000000" font-family="sans-serif" font-size="14" lengthAdjust="spacing" textLength="234" x="1310" y="411.3613">getPayload(): shared_ptr&lt;TPayload&gt;</text></g><!--MD5=[7815c1f55fa6c35d0f43c24c1b71c3b7]
reverse link Token to ConstantToken--><g id="link_Token_ConstantToken"><path d="M2531.25,105.66 C2326.48,124.99 1966.38,167.88 1857,238 C1820.53,261.38 1795.75,307.07 1783.31,334.83 " fill="none" id="Token-backto-ConstantToken" style="stroke:#181818;stroke-width:1.0;"/><polygon fill="none" points="2530.62,98.69,2551.18,103.8,2531.91,112.63,2530.62,98.69" style="stroke:#181818;stroke-width:1.0;"/></g><!--MD5=[90cc6a817064567e55b2a0fa603d6da2]
reverse link ConstantToken to CharacterConstantToken--><g id="link_ConstantToken_CharacterConstantToken"><path d="M1750.24,400.2 C1734.89,424.56 1713.62,455.55 1691,480 C1671.39,501.21 1647.88,521.93 1625.57,539.94 " fill="none" id="ConstantToken-backto-CharacterConstantToken" style="stroke:#181818;stroke-width:1.0;"/><polygon fill="none" points="1744.32,396.46,1760.75,383.08,1756.26,403.78,1744.32,396.46" style="stroke:#181818;stroke-width:1.0;"/></g><!--MD5=[b02e789b8d4a7a5f685db96a58e15b29]
reverse link ConstantToken to DecimalConstantToken--><g id="link_ConstantToken_DecimalConstantToken"><path d="M1797.73,400.22 C1813.07,424.6 1834.34,455.59 1857,480 C1876.62,501.14 1900.12,521.77 1922.48,539.71 " fill="none" id="ConstantToken-backto-DecimalConstantToken" style="stroke:#181818;stroke-width:1.0;"/><polygon fill="none" points="1791.71,403.81,1787.23,383.1,1803.65,396.49,1791.71,403.81" style="stroke:#181818;stroke-width:1.0;"/></g><!--MD5=[3bfd299072cbf6a64adaaa48d02915f0]
reverse link Token to ErrorToken--><g id="link_Token_ErrorToken"><path d="M2532.27,134.68 C2449.4,160.31 2344.44,196.3 2255,238 C2217.16,255.64 2177.38,278.64 2143.43,299.77 " fill="none" id="Token-backto-ErrorToken" style="stroke:#181818;stroke-width:1.0;"/><polygon fill="none" points="2530.31,127.96,2551.48,128.8,2534.41,141.35,2530.31,127.96" style="stroke:#181818;stroke-width:1.0;"/></g><!--MD5=[d05b1385ad89b0ed58f604ff1b2ac723]
reverse link Token to IdentifierToken--><g id="link_Token_IdentifierToken"><path d="M2617.54,167.33 C2583.88,209.13 2542.37,260.68 2511,299.63 " fill="none" id="Token-backto-IdentifierToken" style="stroke:#181818;stroke-width:1.0;"/><polygon fill="none" points="2612.26,162.73,2630.26,151.55,2623.16,171.51,2612.26,162.73" style="stroke:#181818;stroke-width:1.0;"/></g><!--MD5=[8be2709c5fa22883abc37a8c15c073b6]
reverse link Token to KeywordToken--><g id="link_Token_KeywordToken"><path d="M2736.46,167.33 C2770.12,209.13 2811.63,260.68 2843,299.63 " fill="none" id="Token-backto-KeywordToken" style="stroke:#181818;stroke-width:1.0;"/><polygon fill="none" points="2730.84,171.51,2723.74,151.55,2741.74,162.73,2730.84,171.51" style="stroke:#181818;stroke-width:1.0;"/></g><!--MD5=[6b29ac2c890be5b5974493c853f2783b]
reverse link Token to PunctuatorToken--><g id="link_Token_PunctuatorToken"><path d="M2822.13,136.72 C2906.37,163.17 3013.89,199.3 3107,238 C3150.98,256.28 3198.12,279.1 3238.87,299.92 " fill="none" id="Token-backto-PunctuatorToken" style="stroke:#181818;stroke-width:1.0;"/><polygon fill="none" points="2819.9,143.35,2802.89,130.71,2824.07,129.99,2819.9,143.35" style="stroke:#181818;stroke-width:1.0;"/></g><!--MD5=[b0abb58263559d33ce22a1ff1ff35270]
reverse link Token to StringLiteralToken--><g id="link_Token_StringLiteralToken"><path d="M2822.61,99.45 C3005.96,110.78 3328.29,143.55 3587,238 C3628.5,253.15 3670.9,277.29 3705.85,299.97 " fill="none" id="Token-backto-StringLiteralToken" style="stroke:#181818;stroke-width:1.0;"/><polygon fill="none" points="2822.13,106.44,2802.58,98.27,2822.96,92.46,2822.13,106.44" style="stroke:#181818;stroke-width:1.0;"/></g><!--MD5=[a90a1e534719fda911090454cd99afce]
reverse link IInputStream to ISO88591InputStream--><g id="link_IInputStream_ISO88591InputStream"><path d="M4135,171.57 C4135,192.42 4135,215.43 4135,237.97 " fill="none" id="IInputStream-backto-ISO88591InputStream" style="stroke:#181818;stroke-width:1.0;stroke-dasharray:7.0,7.0;"/><polygon fill="none" points="4128,171.55,4135,151.55,4142,171.55,4128,171.55" style="stroke:#181818;stroke-width:1.0;"/></g><!--MD5=[45937bf679ddd9db4fd6385b2a2dc12b]
reverse link ITokenVisitor to PrintVisitor--><g id="link_ITokenVisitor_PrintVisitor"><path d="M4451,198.67 C4451,211.45 4451,224.58 4451,237.56 " fill="none" id="ITokenVisitor-backto-PrintVisitor" style="stroke:#181818;stroke-width:1.0;stroke-dasharray:7.0,7.0;"/><polygon fill="none" points="4444,198.28,4451,178.28,4458,198.28,4444,198.28" style="stroke:#181818;stroke-width:1.0;"/></g><!--MD5=[311522b9355f2f95bfa4ed0bb60a9049]
reverse link IAutomaton to Automaton--><g id="link_IAutomaton_Automaton"><path d="M4874,145.69 C4874,199.21 4874,280.79 4874,325.64 " fill="none" id="IAutomaton-backto-Automaton" style="stroke:#181818;stroke-width:1.0;stroke-dasharray:7.0,7.0;"/><polygon fill="none" points="4867,145.67,4874,125.67,4881,145.67,4867,145.67" style="stroke:#181818;stroke-width:1.0;"/></g><!--MD5=[1ea828b6857ee5cfe64689c89bbbbb15]
@startuml

abstract class Token {
	- position: TokenPosition

	+ accept(visitor: ITokenVisitor&): void
	+ getPosition(): const TokenPosition&
	# Token(position: TokenPosition)
}

abstract class ConstantToken extends Token {
}

class CharacterConstantToken extends ConstantToken {
	- value: string

	+ CharacterConstantToken(position: TokenPosition, value: string)
	+ accept(visitor: ITokenVisitor&): void
	+ getValue(): const string&
}

class DecimalConstantToken extends ConstantToken {
	- value: string

	+ DecimalConstantToken(position: TokenPosition, value: string)
	+ accept(visitor: ITokenVisitor&): void
	+ getValue(): const string&
}

class ErrorToken extends Token {
	- message: string

	+ ErrorToken(position: TokenPosition, message: string)
	+ accept(visitor: ITokenVisitor&): void
	+ getMessage(): const string&
}

class IdentifierToken extends Token {
	- identifier: string

	+ IdentifierToken(position: TokenPosition, identifier: string)
	+ accept(visitor: ITokenVisitor&): void
	+ getIdentifier(): const string&
}

enum Keyword {}

class KeywordToken extends Token {
	- keyword: Keyword

	+ KeywordToken(position: TokenPosition, keyword: Keyword)
	+ accept(visitor: ITokenVisitor&): void
	+ getKeyword(): Keyword
}

enum Punctuator {}

class PunctuatorToken extends Token {
	- punctuator: Punctuator

	+ PunctuatorToken(position: TokenPosition, punctuator: Punctuator)
	+ accept(visitor: ITokenVisitor&): void
	+ getPunctuator(): Punctuator
}

class StringLiteralToken extends Token {
	- value: string

	+ IdentifierToken(position: TokenPosition, value: string)
	+ accept(visitor: ITokenVisitor&): void
	+ getValue(): const string&
}

class TokenPosition {
	- file: string
	- line: uint32_t
	- column: uint32_t

	+ TokenPosition(file: string, line: uint32_t, column: uint32_t)
	+ getFile(): string
	+ getLine(): uint32_t
	+ getColumn(): uint32_t
}

interface IInputStream<TElement> {
	+ popMark(): void
	+ pushMark(): void
	+ read(TElement *dst): bool
	+ resetToMark(): void
}

class ISO88591InputStream implements IInputStream {
	- stream: ifstream
	- buffer: char*
	- bufferOffset: size_t
	- bufferLimit: size_t
	- bufferCapacity: size_t
	- markStack: vector<size_t>

	+ ISO88591InputStream(filePath: string)	
	+ popMark(): void
	+ pushMark(): void
	+ read(char *dst): bool
	+ resetToMark(): void
}

interface ITokenVisitor {
	+ visit(token: CharacterConstantToken): void
	+ visit(token: DecimalConstantToken): void
	+ visit(token: ErrorToken): void
	+ visit(token: IdentifierToken): void
	+ visit(token: KeywordToken): void
	+ visit(token: PunctuatorToken): void
	+ visit(token: StringLiteralToken): void
}

class PrintVisitor implements ITokenVisitor {
	- outputStream: ostream

	+ PrintVisitor(outputStream: ostream)
	+ visit(token: CharacterConstantToken): void
	+ visit(token: DecimalConstantToken): void
	+ visit(token: ErrorToken): void
	+ visit(token: IdentifierToken): void
	+ visit(token: KeywordToken): void
	+ visit(token: PunctuatorToken): void
	+ visit(token: StringLiteralToken): void
	
	- printPosition(token: Token&)
}

class Lexer {
	- charStream: shared_ptr<IInputStream<char>>
	- punctuatorAutomaton: shared_ptr<IAutomaton>
	- keywordAutomaton: shared_ptr<IAutomaton>
	- digraphAutomaton: shared_ptr<IAutomaton>
	
	+ Lexer(charStream: shared_ptr<IInputStream<char>>, punctuatorAutomaton: shared_ptr<IAutomaton>, keywordAutomaton: shared_ptr<IAutomaton>, digraphAutomaton: shared_ptr<IAutomaton>)
	+ nextToken(): shared_ptr<Token>
}

interface IAutomaton<TEdge, TPayload> {
	+ walk(src: IInputStream<TEdge>): shared_ptr<Node<TEdge, TPayload>>
}

class Automaton implements IAutomaton {
    + Automaton(tree: Tree)
}

class Node<TEdge, TPayload> {
	- transitions: unordered_map<TEdge, shared_ptr<Node>>
	- payload: shared_ptr<TPayload>

	+ Node()
	+ getPayload(): shared_ptr<TPayload>
}

@enduml

PlantUML version 1.2022.12(Sun Oct 23 20:12:26 CEST 2022)
(GPL source distribution)
Java Runtime: Java(TM) SE Runtime Environment
JVM: Java HotSpot(TM) 64-Bit Server VM
Default Encoding: UTF-8
Language: en
Country: US
--></g></svg>