<?xml version="1.0" encoding="UTF-8" standalone="no"?><svg xmlns="http://www.w3.org/2000/svg" xmlns:xlink="http://www.w3.org/1999/xlink" contentStyleType="text/css" height="406px" preserveAspectRatio="none" style="width:438px;height:406px;background:#FFFFFF;" version="1.1" viewBox="0 0 438 406" width="438px" zoomAndPan="magnify"><defs/><g><line style="stroke:#181818;stroke-width:0.5;stroke-dasharray:5.0,5.0;" x1="56" x2="56" y1="37.6094" y2="369.4219"/><line style="stroke:#181818;stroke-width:0.5;stroke-dasharray:5.0,5.0;" x1="142" x2="142" y1="37.6094" y2="369.4219"/><line style="stroke:#181818;stroke-width:0.5;stroke-dasharray:5.0,5.0;" x1="293" x2="293" y1="37.6094" y2="369.4219"/><line style="stroke:#181818;stroke-width:0.5;stroke-dasharray:5.0,5.0;" x1="391" x2="391" y1="37.6094" y2="369.4219"/><rect fill="#E2E2F0" height="31.6094" rx="2.5" ry="2.5" style="stroke:#181818;stroke-width:0.5;" width="103" x="5" y="5"/><text fill="#000000" font-family="sans-serif" font-size="14" lengthAdjust="spacing" textLength="89" x="12" y="26.5332">External Code</text><rect fill="#E2E2F0" height="31.6094" rx="2.5" ry="2.5" style="stroke:#181818;stroke-width:0.5;" width="103" x="5" y="368.4219"/><text fill="#000000" font-family="sans-serif" font-size="14" lengthAdjust="spacing" textLength="89" x="12" y="389.9551">External Code</text><rect fill="#E2E2F0" height="31.6094" rx="2.5" ry="2.5" style="stroke:#181818;stroke-width:0.5;" width="49" x="118" y="5"/><text fill="#000000" font-family="sans-serif" font-size="14" lengthAdjust="spacing" textLength="35" x="125" y="26.5332">Lexer</text><rect fill="#E2E2F0" height="31.6094" rx="2.5" ry="2.5" style="stroke:#181818;stroke-width:0.5;" width="49" x="118" y="368.4219"/><text fill="#000000" font-family="sans-serif" font-size="14" lengthAdjust="spacing" textLength="35" x="125" y="389.9551">Lexer</text><rect fill="#E2E2F0" height="31.6094" rx="2.5" ry="2.5" style="stroke:#181818;stroke-width:0.5;" width="93" x="247" y="5"/><text fill="#000000" font-family="sans-serif" font-size="14" lengthAdjust="spacing" textLength="79" x="254" y="26.5332">IInputStream</text><rect fill="#E2E2F0" height="31.6094" rx="2.5" ry="2.5" style="stroke:#181818;stroke-width:0.5;" width="93" x="247" y="368.4219"/><text fill="#000000" font-family="sans-serif" font-size="14" lengthAdjust="spacing" textLength="79" x="254" y="389.9551">IInputStream</text><rect fill="#E2E2F0" height="31.6094" rx="2.5" ry="2.5" style="stroke:#181818;stroke-width:0.5;" width="82" x="350" y="5"/><text fill="#000000" font-family="sans-serif" font-size="14" lengthAdjust="spacing" textLength="68" x="357" y="26.5332">Automaton</text><rect fill="#E2E2F0" height="31.6094" rx="2.5" ry="2.5" style="stroke:#181818;stroke-width:0.5;" width="82" x="350" y="368.4219"/><text fill="#000000" font-family="sans-serif" font-size="14" lengthAdjust="spacing" textLength="68" x="357" y="389.9551">Automaton</text><polygon fill="#181818" points="130.5,65.9609,140.5,69.9609,130.5,73.9609,134.5,69.9609" style="stroke:#181818;stroke-width:1.0;"/><line style="stroke:#181818;stroke-width:1.0;" x1="56.5" x2="136.5" y1="69.9609" y2="69.9609"/><text fill="#000000" font-family="sans-serif" font-size="13" lengthAdjust="spacing" textLength="60" x="63.5" y="65.1045">nextToken</text><polygon fill="#181818" points="281.5,96.3125,291.5,100.3125,281.5,104.3125,285.5,100.3125" style="stroke:#181818;stroke-width:1.0;"/><line style="stroke:#181818;stroke-width:1.0;" x1="142.5" x2="287.5" y1="100.3125" y2="100.3125"/><text fill="#000000" font-family="sans-serif" font-size="13" lengthAdjust="spacing" textLength="57" x="149.5" y="95.4561">pushMark</text><polygon fill="#181818" points="153.5,110.3125,143.5,114.3125,153.5,118.3125,149.5,114.3125" style="stroke:#181818;stroke-width:1.0;"/><line style="stroke:#181818;stroke-width:1.0;stroke-dasharray:2.0,2.0;" x1="147.5" x2="292.5" y1="114.3125" y2="114.3125"/><polygon fill="#181818" points="281.5,140.6641,291.5,144.6641,281.5,148.6641,285.5,144.6641" style="stroke:#181818;stroke-width:1.0;"/><line style="stroke:#181818;stroke-width:1.0;" x1="142.5" x2="287.5" y1="144.6641" y2="144.6641"/><text fill="#000000" font-family="sans-serif" font-size="13" lengthAdjust="spacing" textLength="25" x="149.5" y="139.8076">read</text><polygon fill="#181818" points="153.5,154.6641,143.5,158.6641,153.5,162.6641,149.5,158.6641" style="stroke:#181818;stroke-width:1.0;"/><line style="stroke:#181818;stroke-width:1.0;stroke-dasharray:2.0,2.0;" x1="147.5" x2="292.5" y1="158.6641" y2="158.6641"/><line style="stroke:#181818;stroke-width:1.0;" x1="142.5" x2="184.5" y1="189.0156" y2="189.0156"/><line style="stroke:#181818;stroke-width:1.0;" x1="184.5" x2="184.5" y1="189.0156" y2="202.0156"/><line style="stroke:#181818;stroke-width:1.0;" x1="143.5" x2="184.5" y1="202.0156" y2="202.0156"/><polygon fill="#181818" points="153.5,198.0156,143.5,202.0156,153.5,206.0156,149.5,202.0156" style="stroke:#181818;stroke-width:1.0;"/><text fill="#000000" font-family="sans-serif" font-size="13" lengthAdjust="spacing" textLength="137" x="149.5" y="184.1592">readKeywordOrIdentifier</text><polygon fill="#181818" points="281.5,228.3672,291.5,232.3672,281.5,236.3672,285.5,232.3672" style="stroke:#181818;stroke-width:1.0;"/><line style="stroke:#181818;stroke-width:1.0;" x1="142.5" x2="287.5" y1="232.3672" y2="232.3672"/><text fill="#000000" font-family="sans-serif" font-size="13" lengthAdjust="spacing" textLength="58" x="149.5" y="227.5107">resetMark</text><polygon fill="#181818" points="153.5,242.3672,143.5,246.3672,153.5,250.3672,149.5,246.3672" style="stroke:#181818;stroke-width:1.0;"/><line style="stroke:#181818;stroke-width:1.0;stroke-dasharray:2.0,2.0;" x1="147.5" x2="292.5" y1="246.3672" y2="246.3672"/><polygon fill="#181818" points="379,272.7188,389,276.7188,379,280.7188,383,276.7188" style="stroke:#181818;stroke-width:1.0;"/><line style="stroke:#181818;stroke-width:1.0;" x1="142.5" x2="385" y1="276.7188" y2="276.7188"/><text fill="#000000" font-family="sans-serif" font-size="13" lengthAdjust="spacing" textLength="26" x="149.5" y="271.8623">walk</text><polygon fill="#181818" points="153.5,303.0703,143.5,307.0703,153.5,311.0703,149.5,307.0703" style="stroke:#181818;stroke-width:1.0;"/><line style="stroke:#181818;stroke-width:1.0;stroke-dasharray:2.0,2.0;" x1="147.5" x2="390" y1="307.0703" y2="307.0703"/><text fill="#000000" font-family="sans-serif" font-size="13" lengthAdjust="spacing" textLength="30" x="159.5" y="302.2139">Node</text><polygon fill="#181818" points="281.5,333.4219,291.5,337.4219,281.5,341.4219,285.5,337.4219" style="stroke:#181818;stroke-width:1.0;"/><line style="stroke:#181818;stroke-width:1.0;" x1="142.5" x2="287.5" y1="337.4219" y2="337.4219"/><text fill="#000000" font-family="sans-serif" font-size="13" lengthAdjust="spacing" textLength="25" x="149.5" y="332.5654">read</text><polygon fill="#181818" points="153.5,347.4219,143.5,351.4219,153.5,355.4219,149.5,351.4219" style="stroke:#181818;stroke-width:1.0;"/><line style="stroke:#181818;stroke-width:1.0;stroke-dasharray:2.0,2.0;" x1="147.5" x2="292.5" y1="351.4219" y2="351.4219"/><!--MD5=[0de72f5f41df9d32694bef5279f60515]
@startuml

"External Code" -> Lexer : nextToken
Lexer -> IInputStream : pushMark
Lexer <- - IInputStream

Lexer -> IInputStream : read
Lexer <- - IInputStream

Lexer -> Lexer : readKeywordOrIdentifier

Lexer -> IInputStream : resetMark
Lexer <- - IInputStream

Lexer -> Automaton : walk
Lexer <- - Automaton : Node

Lexer -> IInputStream : read
Lexer <- - IInputStream

@enduml

PlantUML version 1.2022.12(Sun Oct 23 20:12:26 CEST 2022)
(GPL source distribution)
Java Runtime: Java(TM) SE Runtime Environment
JVM: Java HotSpot(TM) 64-Bit Server VM
Default Encoding: UTF-8
Language: en
Country: US
--></g></svg>